<svg width="676" height="167" viewBox="0 0 676 167" fill="none" xmlns="http://www.w3.org/2000/svg">
<path d="M414.6 6C407.6 8.2 403.8 15 401 30.4C399.3 39.7 399 44.3 399.5 51.4C400.2 61.6 400.7 64 405.7 79.3C407.6 85.2 408.9 90.8 408.6 91.7C408.2 92.6 407.7 93.1 407.4 92.8C407.2 92.5 404.6 94.5 401.7 97.2C396.7 101.8 396.6 102.1 398.4 103.5C400.8 105.4 402.8 105.3 406 103.5C410.7 100.8 412.4 101.5 413.9 106.7C418.1 122.4 419.8 127.7 422.5 133C423.2 134.4 424 137.1 424.4 139.1C425.5 145.5 431.9 149.6 432.8 144.5C433 143.4 433.9 141.9 434.8 141.2C436.3 140.1 436.3 139.7 434.8 136.7C428.6 124.6 422 106.4 422 101.6C422 100.2 422.9 99.9 427.8 100.1C433.8 100.3 438 98.9 438 96.5C438 93.6 436.7 92 433.7 91.5C426.7 90.3 425.4 90.1 422 90.1C418.7 90 418.4 89.7 416.7 84.7C410 65 408.7 58.6 408.7 43.5C408.6 31.6 408.9 28.6 410.8 23.7C413 17.6 414.2 16 417.8 14.1C423.1 11.3 429.6 19.8 430.5 30.8C431 36.2 429.7 49 427.1 63.5C425.4 73.5 430.4 78.1 433.8 69.5C436.6 62.4 438.8 49.4 438.9 39.2C439.1 23.3 436.7 17 427.6 9.5C422.9 5.7 419 4.6 414.6 6Z" fill="black"/>
<path d="M495.3 13.7C493.2 14.1 493 14.7 493 20.8C493 28.5 494.4 58.7 496.1 87C497.3 107.9 498.2 111.4 502.3 110.8C503.7 110.6 504.7 109.4 505.3 107C505.8 105.1 506.9 102.7 507.7 101.8C509 100.3 509 99.6 507.7 95.3C505.2 87.7 504.1 75 502.4 37C501.7 20.1 500.3 12.7 498.1 13.1C497.8 13.2 496.5 13.5 495.3 13.7Z" fill="black"/>
<path d="M250 20.2C247.6 22.8 247.2 30.6 249.4 34.8C250.6 37.2 251.4 41.4 255.1 64C255.6 67 256.2 71.3 256.5 73.5C257.1 79.2 260.7 97.3 261.8 100.1C262.3 101.4 263.3 104.3 264 106.5C265.4 111.2 268.6 115 271.1 115C275 115 276.9 107.7 273.9 104.4C272.8 103.3 271.7 101.5 271.5 100.4C271.3 99.4 270.6 96.7 269.9 94.5C268.8 90.6 265.8 73.6 264 61.5C261.6 45.3 256.9 23.5 254.9 19.8C253.6 17.4 252.5 17.5 250 20.2Z" fill="black"/>
<path d="M211.6 45.6C207.8 49.4 210.9 55.1 215.8 53.4C218.1 52.6 218.5 51.9 218.3 49.1C218.1 44.2 214.7 42.5 211.6 45.6Z" fill="black"/>
<path d="M457.8 52.1C455.5 53.4 455.5 57.2 457.8 60C459.3 61.9 460 62.1 461.8 61.1C464 59.9 465.8 54.1 464.5 52.1C463.7 50.7 460.1 50.7 457.8 52.1Z" fill="black"/>
<path d="M517.1 54.2C516.7 55.5 516.7 57.8 517.1 59.5C518 62.8 518.8 68.2 519.6 77.5C519.9 80.8 520.7 86 521.5 89C522.2 92 523.1 96.6 523.5 99.2C524 103.1 524.5 104.1 526.5 104.6C529.6 105.4 531 104.4 531 101.6C531 100.3 531.9 98.6 533 97.9C534.7 96.7 534.8 96 534 92.5C532.5 86.4 532.7 82 534.5 82C535.3 82 538.1 84 540.7 86.5C543.2 89 545.6 91 545.9 91C546.1 91 547.4 91.9 548.6 93.1C549.8 94.3 551.3 94.9 551.8 94.6C552.4 94.3 554.3 91.1 556 87.5C557.7 83.9 559.3 81 559.6 81C560.7 81 562.9 87.4 564.4 94.9C565.7 101.7 567 104.7 570.6 110.2C576.2 118.6 578.3 118.9 581.1 111.8L582.9 107.1L579.9 104.9C576.2 102.3 574.1 97.6 571.1 85.5C569.8 80.5 568.4 75.7 567.9 74.8C567.4 73.8 567 72.3 567 71.3C567 70.4 566 66.6 564.8 62.8C562.9 56.9 562.3 56 560.2 56C555.8 56 554.7 58.2 550.8 75C550.3 77.5 549.4 79.9 549 80.3C548.1 81.3 533 67.4 533 65.6C533 64.9 532.2 63.5 531.3 62.4C530.3 61.4 528.2 58.6 526.6 56.2C524.3 52.9 523.1 52 520.8 52C518.8 52 517.7 52.6 517.1 54.2Z" fill="black"/>
<path d="M36.0001 60.1C20.2001 65.4 19.3001 65.9 18.7001 68.7C17.6001 74.7 21.1001 74.7 36.8001 69C42.6001 66.9 45.7001 66.3 46.9001 66.9C48.5001 67.8 53.0001 79.1 53.0001 82.5C53.0001 83.8 52.1001 84.1 48.8001 84C38.5001 83.6 37.6001 83.8 32.9001 88.2C30.4001 90.6 27.4001 94.6 26.1001 97.1C24.1001 101.1 24.0001 102.3 24.8001 106.8C25.3001 109.7 25.5001 113.2 25.2001 114.6C24.5001 118.1 27.8001 120.9 36.0001 123.8C44.3001 126.6 47.1001 126.6 53.8001 123.4C56.8001 122 60.1001 121.1 61.2001 121.3C64.3001 122.2 68.0001 120 68.0001 117.4C68.0001 116.1 68.4001 114.9 68.9001 114.5C70.1001 113.8 69.2001 107.2 67.5001 104.5C65.7001 101.4 63.0001 92.9 63.0001 90.1C63.0001 83.2 56.7001 60.1 54.2001 58.2C51.8001 56.3 45.4001 57 36.0001 60.1ZM50.2001 92.1C53.3001 93.8 57.5001 106.1 56.4001 110.4C55.7001 113.2 48.1001 117 43.0001 117C36.0001 117 29.0001 110.3 29.0001 103.8C29.0001 98.5 33.6001 92.8 39.5001 90.8C41.8001 90 47.6001 90.7 50.2001 92.1Z" fill="black"/>
<path d="M307.5 58.6C304.8 59.3 299.4 60.7 295.6 61.5C287.6 63.3 286 64.3 286 67.6C286 71.9 289.7 72.6 300.6 70.3L310.2 68.3L311.5 70.4C312.2 71.6 313 73.6 313.2 74.9C313.5 77.5 313.4 77.5 303.9 80C301.2 80.7 297.5 82.7 295 85L290.7 88.8L291.4 96.1C292.3 104.5 293 105.8 299.6 110.5C305.6 114.8 309.7 115.1 313 111.5C315.9 108.4 316.7 108.4 320.1 111.6C322.2 113.6 324.1 114.3 328.6 114.7C334.1 115.1 334.9 114.9 340.2 111.5C349.1 105.9 352.8 96 346 96C345 96 343.3 97 342.3 98.3C339.1 102.3 334.8 105 331.8 105C329.1 105 328.8 104.7 329.4 102.5C329.8 100.9 329.1 97.2 327.6 92.7C326.2 88.8 324.6 81.9 323.9 77.5C322.7 69.9 318.4 59.6 315.6 57.8C314.1 56.8 313.4 56.9 307.5 58.6ZM313.6 85.8C315.6 87.1 316.1 91.9 314.6 94.9C311.6 100.7 308.2 103.8 305.5 103.2C302.4 102.7 301.2 100.6 300.8 95.6C300.6 92.4 301.1 91.5 304 89.2C306.8 86.9 309.6 85.5 312 85.1C312.3 85.1 313 85.4 313.6 85.8Z" fill="black"/>
<path d="M595.6 58.4C590.9 60.2 584.2 67.3 583.4 71.5C583.1 73.4 583.5 76.2 584.3 78.3C585.6 81.2 585.6 83.1 584.8 88.7C583.8 95.1 583.9 95.9 586.4 101.2C590.4 109.8 598 115 606.8 115C613 115 616.5 113.3 618.2 109.5C619.3 106.9 620 106.5 623.2 106.7C625.6 106.9 628.7 108.2 631.7 110.3C635.7 113.1 637.2 113.6 640.5 113.2C644.9 112.7 649 110.4 649 108.6C649 108 649.9 106.7 650.9 105.8C654.9 102.4 655.6 92.3 652.4 86.8C651.3 85 640.9 75.6 638.5 74.2C636.3 73 637.2 70 639.8 70C640.8 70 642.5 69.3 643.6 68.5C644.6 67.7 646.2 67 647.1 67C648.6 67 649.7 64.9 650.6 60C651 58.1 649 56.9 647 58C646.1 58.5 644.1 59 642.5 59.2C638.4 59.8 633.1 62.3 629.8 65.2C626.2 68.5 625.1 74.8 627.7 77.2C631.1 80.5 636 84.2 636 83.5C636 83.1 638 84.9 640.5 87.6C644.2 91.5 645 93 645 96.1C645 101.4 641.8 103.5 635.3 102.6C632.8 102.3 630.2 101.6 629.6 101.2C629 100.7 626.9 99.7 625 99C623.1 98.3 620.7 97 619.8 96.3C617.6 94.3 614.5 96.1 613.6 99.7C612.1 106.6 607.2 108.5 601.9 104.3C596.5 100.2 594 95.8 594 90.6C594 85.9 595.2 84.7 598.5 86.1C599.6 86.5 602.2 86.9 604.4 86.9C607.6 87 608.9 86.4 611.6 83.5C613.4 81.5 615.5 78.1 616.2 75.9C619.5 64.6 607.2 54.1 595.6 58.4ZM607 67.9C609.8 73.2 606 79.1 601.1 77.3C598.8 76.5 598.5 75.9 598.7 72C598.8 69.6 599.5 67.3 600.2 66.9C602.5 65.4 605.9 65.9 607 67.9Z" fill="black"/>
<path d="M76.7999 65.7C74.8999 66.2 74.2999 70.8 75.7999 72.5C76.1999 73.1 77.4999 76 78.6999 79C79.7999 82 81.7999 87.2 83.0999 90.5C84.3999 93.8 85.3999 98.2 85.4999 100.2C85.4999 102.3 85.7999 104 86.2999 104C86.6999 104 86.9999 105.3 86.9999 106.8C86.9999 108.4 87.8999 110.7 88.9999 112C90.0999 113.3 90.9999 114.9 90.9999 115.6C90.9999 117.2 94.3999 118.3 96.9999 117.5C98.2999 117.1 98.9999 116 98.9999 114.5C98.9999 113.2 99.3999 111.9 99.8999 111.6C100.4 111.3 99.3999 107.5 97.7999 103.3C95.0999 96.3 94.7999 94.7 95.2999 88C95.7999 81.5 96.1999 80.2 98.5999 78.2C102.2 75 108.9 75.9 113.7 80.2C116.8 83.1 120 81.2 120 76.5C120 72.2 117 70.1 108.2 68.1C100.3 66.4 95.7999 67.3 90.9999 71.6L87.1999 75L85.0999 71.5C83.8999 69.5 82.9999 67.5 82.9999 67C82.9999 66.6 82.2999 65.9 81.3999 65.6C79.6999 65 79.4999 65 76.7999 65.7Z" fill="black"/>
<path d="M152.5 69.9C146.3 71.4 142.4 75.2 138.7 83.2C136.6 87.7 136.5 96.5 138.5 100.4C139.3 101.9 140 103.9 140 104.7C140 106.8 143.9 114 145 114C145.6 114 146 114.6 146 115.3C146 117.3 151.1 121.8 154.3 122.5C155.8 122.9 157.3 123.6 157.6 124.1C157.9 124.6 159.3 125 160.8 125C165.2 125 166 126.1 165 130.5C162.9 139.4 164.2 144.8 171.2 155.5C178.3 166.5 191.8 174 196.3 169.5C198.7 167.2 202.9 153.2 203.6 145.5C204.2 138 202.2 123.6 199.7 117.8C198.9 116 197.5 112.6 196.5 110.3L194.7 106.1L197.4 102.5C198.9 100.5 199.9 98.2 199.6 97.5C199.2 96.3 195.8 95.5 192.8 95.9C192.5 95.9 191.8 94.1 191.5 91.7C190.5 86 186.9 81.7 178.5 76C168.7 69.4 161.6 67.7 152.5 69.9ZM167.3 77.1C169.3 77.6 171 78.5 171 79C171 79.6 171.5 80 172.1 80C172.7 80 175.2 82 177.6 84.5C181.1 88 181.9 89.4 181.2 90.7C180.7 91.7 180.6 93.4 181.1 94.5C181.5 95.6 181.9 97.4 181.9 98.6C182 101.7 176.2 109.8 171.1 113.6C167.3 116.5 165.8 117 162.8 116.6C160.7 116.4 158.3 115.5 157.5 114.6C156.6 113.8 155.4 112.7 154.7 112.3C152.5 110.9 149.2 105.4 148.1 101.4C145.7 92.7 147.5 85.1 152.6 82.6C154.7 81.6 156 80.3 156 79.1C156 76 160.5 75.2 167.3 77.1ZM191.4 123C193.9 129.4 194.3 131.9 194.4 140.5C194.5 152.2 193.5 159.4 191.4 161.5C189.3 163.5 188.8 163.4 185.4 160.5C183.8 159.1 182 158 181.4 158C180 158 174.3 146.3 173 140.7C171.8 135 173.8 128.4 178.8 122C186 112.8 187.4 112.9 191.4 123Z" fill="black"/>
<path d="M214.8 71.7C212.1 72.1 211.2 74 212 77.5C212.1 78 212.6 80.7 213 83.5C214.4 91.9 217.1 103.3 218.6 106.9C219.4 108.7 220 111.1 220 112.2C220 113.8 220.6 114.1 223.6 113.8C226.8 113.5 227.4 113.1 228.5 109.6C229.7 106.1 229.7 105.5 227.9 103.1C226.9 101.6 225.1 95.9 223.9 90C222.8 84.2 221.5 78.6 221 77.5C220.5 76.4 219.8 74.5 219.5 73.2C219.1 72 218.6 71.1 218.2 71.1C217.8 71.2 216.3 71.5 214.8 71.7Z" fill="black"/>
<path d="M453.2 74.5C451.1 75.4 450 76.6 450 78C450 79.1 450.4 80 450.8 80C451.3 80 452 84.2 452.3 89.4C453 100.4 454.3 104 457.6 104C459.6 104 461.3 102.7 461.5 101C461.6 100.7 462 99.5 462.4 98.2C462.8 96.9 462.7 94.7 462.2 93.2C461.6 91.7 460.9 87.1 460.6 83C460.3 78.9 460.1 75.4 460 75.3C460 75.2 459.2 74.6 458.2 74.1C457.1 73.5 455.4 73.6 453.2 74.5Z" fill="black"/>
</svg>
