<svg width="410" height="167" viewBox="0 0 410 167" fill="none" xmlns="http://www.w3.org/2000/svg">
<path d="M208.7 18.8C207.7 19.8 207 21.6 207 22.8C207 23.9 206.6 25.1 206.2 25.4C205.7 25.7 205.7 28.5 206.2 31.7C206.6 34.9 207.4 44.9 207.9 54C209 72.1 209.2 71.6 202.7 72.6C200.7 73 198.7 73.7 198.4 74.1C198.1 74.6 197 75 195.9 75C194.8 75 192.7 75.6 191.2 76.4C185.2 79.4 184.2 79.3 183.5 75.8C181.6 67.1 174.4 59 168.5 59C165.5 59 155 63.7 155 65C155 65.4 153.3 67.8 151.3 70.4C147.8 74.6 144 76.5 144 73.9C144 72 139 62.6 137.3 61.2C134.5 59.1 130.1 59.7 129.1 62.2C128.1 64.9 128.9 68 132.2 74C135.8 80.4 138.7 89.5 139.4 96.5C139.8 99.8 140.5 102.6 141 102.8C141.6 103 142 103.8 142 104.6C142 106.8 146.8 106.3 148 104C148.6 102.9 148.8 101.5 148.5 101C148.2 100.5 148.7 99.7 149.5 99.2C150.5 98.7 151.1 97 151.1 94.9C151.2 89.6 154.2 81.8 157.7 78C159.5 76.1 161 74.1 161 73.7C161 73 167.1 70 168.5 70C168.7 70 170.1 71.7 171.4 73.7C173.9 77.7 175.1 85.3 175.4 100.2C175.5 106.3 175.9 108.4 177.6 110.7C183.2 118.2 191.9 111.2 187.2 102.9C185.7 100.4 185.2 97.7 185.2 92.7C185.3 85.7 185.5 85.4 190.4 85.9C191.5 86 195.4 85.1 199.2 83.9C210 80.6 210.4 80.8 211.3 91.5C212.2 102.3 213.7 110.6 215.4 114C216.9 117.2 221.7 118 222.6 115.3C222.9 114.3 223.8 112.2 224.6 110.7C226.5 106.9 226.4 106.1 223.4 100.4C221.5 96.8 221.1 95.1 221.8 93.9C222.4 93 222.5 91.9 222.1 91.4C221.6 90.9 221 87.9 220.6 84.8L220 79.2L223.7 77.3C225.7 76.3 228.3 74.3 229.3 72.8C232.1 69 230.3 67 224 67C220.4 67 219 66.6 218.5 65.2C217.8 63.4 216.6 41.3 216.6 27C216.5 22.3 216.1 18.2 215.5 17.8C213.7 16.4 210.3 17 208.7 18.8Z" fill="black"/>
<path d="M312.2 25.7001C309.4 26.3001 307.7 29.4001 308.4 32.8001C308.8 34.3001 309.2 40.9001 309.5 47.5001C309.8 54.1001 310.4 62.6001 311 66.5001C312.4 76.6001 312.4 76.4001 307.4 78.9001C300.1 82.6001 290.6 88.6001 290.2 89.8001C289.6 91.6001 293.8 95.0001 296.6 95.0001C298.1 95.0001 301.5 93.6001 304.2 92.0001C311 87.8001 312.6 88.0001 313.3 93.2001C313.7 95.6001 314.2 98.8001 314.4 100.5C315.6 107.6 316.2 111.8 316.7 115.5C317 117.7 318.1 120.5 319.3 121.7C321.8 124.5 326 124.8 326 122.2C326 121.2 326.5 119.9 327.1 119.3C327.8 118.6 327.4 114.3 325.8 104.9C324.5 97.5001 323.5 89.5001 323.5 87.0001C323.5 82.6001 323.6 82.5001 327.5 81.7001C336.5 79.9001 336.1 79.3001 333.5 89.9001C332 95.9001 332 96.4001 333.8 99.9001C337.6 107.2 346 114.3 353.6 116.6C358.3 118 368.7 117.7 370.3 116.1C370.9 115.5 372.2 115 373.2 115C378.2 115 384.9 104.5 385.1 96.4001C385.4 85.0001 374.7 70.1001 363.9 66.8001C360.9 65.9001 359.2 66.0001 355 67.4001C351.5 68.5001 348.4 68.9001 345.1 68.4001C341.7 68.0001 338.1 68.4001 332.7 69.9001C321.5 72.9001 321 72.9001 320.9 67.7001C320.9 65.4001 320.7 62.4001 320.5 61.0001C320.2 58.7001 319.5 48.6001 318.6 33.1001C318.3 27.5001 317 24.7001 315 25.2001C314.7 25.2001 313.5 25.5001 312.2 25.7001ZM366.4 77.9001C371.3 83.0001 373.5 87.5001 374.4 94.5001C375.4 102.8 372.2 106.3 362.5 107.6C360 107.9 353 105.9 353 104.9C353 104.5 352.2 103.9 351.2 103.5C348.7 102.8 347 98.8001 346 91.8001C345.1 85.6001 345.3 85.1001 352.7 77.3001C356.1 73.8001 362.7 74.1001 366.4 77.9001Z" fill="black"/>
<path d="M32.0004 48.5C31.3004 49.3 30.0004 50 29.0004 50C26.6004 50 16.0004 62.7 16.0004 65.7C16.0004 66.4 15.6004 67 15.1004 67C13.0004 67 8.50039 85.4 9.50039 90C12.7004 104.5 23.2004 113.2 37.5004 113.2C44.9004 113.2 45.5004 113 56.5004 107.2C64.4004 103 68.5004 97.6 66.4004 94.3C64.3004 90.9 61.6004 91.6 49.5004 98.5C40.8004 103.5 37.9004 104.1 32.0004 102.4C24.7004 100.2 18.8004 91.9 19.6004 84.9C20.0004 81.3 22.7004 73.8 23.9004 73C24.3004 72.7 25.6004 70.9 26.8004 68.9C28.0004 67 30.5004 64.5 32.4004 63.5C35.5004 61.8 36.3004 61.8 41.4004 63C44.6004 63.7 47.9004 65.3 49.1004 66.7C50.4004 68 52.5004 69 54.1004 69C56.4004 69 57.1004 68.4 58.0004 65.5C58.7004 63.5 58.9004 61.3 58.6004 60.5C57.9004 58.7 51.1004 55.2 46.3004 54.2C43.7004 53.7 42.4004 52.8 42.1004 51.5C41.4004 47.4 34.6004 45.4 32.0004 48.5Z" fill="black"/>
<path d="M266.5 51.7C265.4 52 263.2 53.5 261.6 55.1C260 56.7 257.8 58.2 256.8 58.6C254 59.5 248 65.3 248 67.1C248 69.2 251.2 72 253.4 72C254.4 72 256.8 70.7 258.6 69C265.3 63.2 269.9 63.7 270.1 70.2C270.2 72.6 270.3 77.4 270.3 81L270.5 87.5L260.7 88.7C247.7 90.3 245.5 91.4 245.4 96.4C245.4 98.9 244.8 100.5 243.7 101.2C241.4 102.4 241.5 103.3 244.8 107.9C248.3 113 251 114.3 262.4 116.2C267.6 117.1 270.2 117.1 273.7 116.1C278.4 114.9 287.9 108.4 288 106.3C288 105.7 288.5 105 289.1 104.8C290.5 104.3 291.5 96.4 290.3 95.7C289.7 95.3 287.8 95.5 286 96C284.1 96.5 282.5 96.8 282.3 96.7C282.2 96.5 281.8 92.1 281.5 86.9C280.5 67.8 279.3 61.4 275.5 53.9C273.9 51 271.7 50.4 266.5 51.7ZM271.2 100.6C272.7 106.2 271.6 107.2 264.7 106.4C252.5 105.1 247.6 98.7 257 96.4C263.8 94.8 270.1 96.6 271.2 100.6Z" fill="black"/>
<path d="M82.8003 63.5C81.8003 64.8 81.0003 66.1 81.0003 66.4C81.0003 66.7 80.1003 67.9 79.1003 68.9C74.7003 73.3 73.8003 84.7 77.0003 93.4C82.9003 109.1 104.1 114.2 117.1 103.1C120.2 100.4 122.1 97.8 123 94.8C123.7 92.4 124.7 90.1 125.2 89.5C126.7 87.8 126 80 124.1 76.2C121.6 71.5 116.9 67.1 110.4 63.7C105.7 61.3 104.2 61 94.9003 61C85.1003 61.1 84.4003 61.2 82.8003 63.5ZM108.7 71.6C112 74 116.7 82.7 116.2 85.5C115.4 90.6 114.8 92.1 112.2 94.5C108.6 98 105.4 99.2 100.1 99.1C95.5003 99.1 89.0003 96.6 89.0003 94.9C89.0003 94.4 87.8003 92.2 86.4003 90C83.9003 86.2 83.8003 85.9 85.4003 84.2C86.3003 83.1 87.0003 80.6 87.0003 78.1C87.0003 74 88.8003 71 92.0003 69.7C95.3003 68.3 105.9 69.6 108.7 71.6Z" fill="black"/>
</svg>
