<svg width="438" height="179" viewBox="0 0 438 179" fill="none" xmlns="http://www.w3.org/2000/svg">
<path d="M277.1 25.9001C275.9 26.7001 275.9 28.3001 277.4 37.2001C280.5 55.7001 281.7 62.4001 283.4 71.0001C284.3 75.7001 286 85.1001 287.1 92.0001C291 115.4 291.2 116 294.6 116C296.3 116 297.5 115 299 112.1C300.1 109.9 301.4 107.9 301.9 107.6C302.4 107.3 303.1 104.6 303.4 101.7C304.8 90.7001 314.8 76.0001 319.7 77.7001C321 78.2001 328 98.8001 328 102C328 102.9 329.1 105.8 330.4 108.6C331.7 111.3 333 114.3 333.3 115.2C334.3 118 339.6 117.5 342.5 114.4C345.7 111 345.7 107.7 342.6 106.1C339.5 104.4 338.7 102.8 334.1 88.5001C327.6 68.4001 326 66.3001 317.4 67.6001C313.7 68.1001 312.2 69.1001 308 73.7001C305.3 76.7001 302.3 80.6001 301.5 82.3001C300.6 84.1001 299.1 86.6001 298.1 87.9001L296.2 90.3001L295.6 85.9001C294.7 80.6001 291.4 63.3001 290 57.0001C289.5 54.5001 288.1 47.0001 287.1 40.2001C286 33.4001 284.6 27.2001 283.9 26.4001C282.6 24.8001 279.2 24.6001 277.1 25.9001Z" fill="black"/>
<path d="M190.8 54.7C188.6 55.3 187.7 59.5 189.2 62C190.6 64.2 194.9 64.7 196.8 62.8C197.5 62.1 198 60.4 198 59C198 54.8 195.7 53.4 190.8 54.7Z" fill="black"/>
<path d="M360.5 55.8C354.2 59.3 347.3 66.1 346.4 69.6C344.7 76.4 350 76.9 356.2 70.6C361.4 65.2 365.2 64.2 369.8 67C373.6 69.3 377 74.5 377 77.9C377 80 376.7 80.2 373.8 79.5C368.4 78.3 360.4 78.4 357.9 79.8C355.6 81 351.6 87.7 351.7 90.3C352 98 354.1 104.6 357.5 108.8C358.2 109.7 360.1 112 361.5 113.8C363 115.6 366 117.9 368.2 119C372.9 121.3 375.8 120.5 380.8 115.7L384.1 112.5L386.7 115.5C390.3 119.7 393.4 121 399.6 121C404.6 121 405.2 120.7 409.2 116.6C413.8 112 417.8 106.9 419.6 103.5C420.2 102.4 421.2 100.5 422 99.4C422.7 98.2 423 96.5 422.7 95.6C421.6 92.8 418.2 93.8 415.3 97.7C409 106.1 403.4 111 400.2 111C394.5 111 392.9 106.2 394.4 94.2L395.2 88H391.6H388V82.9C388 75.6 382.9 63.9 378.2 60.2C370.2 53.9 365.8 52.8 360.5 55.8ZM375 89.7C376 90.7 377.5 94.1 378.4 97.3L380.1 103L377.4 106.5C374.2 110.7 372.7 110.9 369 107.2C362.7 100.8 359.8 90.4 363.8 88C366.2 86.5 373 87.5 375 89.7Z" fill="black"/>
<path d="M101.8 67C97.9998 70.7 97.7998 71.2 98.4998 74.7C100.6 85.5 100.6 90.7 98.4998 108.5C97.6998 114.8 95.9998 117.3 93.1998 116.2C89.0998 114.7 82.2998 107.4 80.8998 103C80.1998 101.1 78.9998 98.5 78.1998 97.2C76.7998 95 76.8998 86 78.5998 75.7C79.1998 72.1 79.0998 72 76.3998 72C72.6998 72 71.8998 72.7 69.5998 77.2C67.9998 80.3 67.7998 82.4 68.1998 90.7C68.6998 98.9 69.1998 101.4 71.5998 106C78.2998 118.9 84.7998 124.6 94.1998 125.7C99.8998 126.4 101.5 125.3 104.2 119.3C106 115.1 108.3 98.3 108.1 90.7C108 88.6 108.2 86.5 108.6 85.9C109.6 84.2 109.7 65.6 108.7 64.2C107.2 62.3 106.1 62.7 101.8 67Z" fill="black"/>
<path d="M145.5 64.9999C135.7 67.1999 126.1 70.5999 123.8 72.6999C119.8 76.1999 122.9 83.7999 127.1 81.0999C131 78.6999 144 74.1999 149 73.4999C154.6 72.6999 155.4 73.6999 151.5 76.7999C150.1 77.8999 149 79.0999 149 79.4999C149 80.2999 146 83.6999 133.5 96.9999C120.8 110.5 119.8 111.9 120.5 115.5C120.8 117.1 121.4 118.8 121.9 119.3C123.5 120.9 137.1 121.7 144.5 120.8C148.4 120.3 155.8 119.6 161 119.2L170.4 118.5L172.6 114.6C175.6 109.3 174.8 107.6 169.6 108.4C134.2 113.6 133 113.8 133 111.9C133 111.3 135.8 107.8 139.3 104.2C160.3 81.9999 163.1 78.6999 165.5 72.8999C167.7 67.4999 167.7 65.1999 165.6 63.7999C163.7 62.4999 153.8 63.0999 145.5 64.9999Z" fill="black"/>
<path d="M22.0003 71.7999C16.3003 75.6999 13.1003 82.4999 15.1003 86.2999C15.7003 87.3999 15.8003 88.4999 15.3003 88.8999C14.1003 89.6999 11.3003 96.6999 10.4003 101C9.10033 107 9.80033 115.6 11.8003 119.4C14.7003 124.7 24.8003 134.7 29.8003 137.1C34.7003 139.5 40.8003 139.3 49.0003 136.5C57.0003 133.8 66.6003 124 68.4003 116.7C68.9003 114.4 68.7003 113.8 66.4003 113C62.5003 111.5 58.5003 113 58.5003 116.1C58.5003 121.8 47.0003 130 39.1003 130C35.1003 130 29.4003 126.6 23.8003 121C21.0003 118.2 20.1003 116.3 19.5003 112.2C18.9003 107.6 19.0003 107 20.7003 106.8C23.4003 106.6 27.0003 106.4 31.3003 106.2C34.9003 106 36.4003 105 40.8003 99.4999C46.2003 92.8999 48.4003 84.4999 46.0003 79.9999C41.6003 71.6999 28.6003 67.2999 22.0003 71.7999ZM36.6003 82.2999C38.9003 84.2999 39.2003 85.0999 38.6003 88.1999C37.9003 92.0999 36.0003 93.6999 29.5003 96.0999C24.9003 97.7999 21.0003 97.4999 21.0003 95.4999C21.0003 93.8999 24.9003 85.9999 26.5003 84.4999C28.1003 82.8999 32.4003 79.9999 33.2003 79.9999C33.6003 79.9999 35.1003 80.9999 36.6003 82.2999Z" fill="black"/>
<path d="M247.3 72.4001C245.8 73.7001 243 78.0001 241.1 81.9001C239.2 85.8001 237.3 89.0001 236.9 89.0001C236.5 89.0001 235.2 87.1001 234.1 84.7001C233 82.4001 230.4 78.8001 228.4 76.7001C224.6 72.7001 223.1 72.6001 218.2 75.7001C215.1 77.6001 215.7 80.1001 219.7 82.0001C221.8 83.0001 223.6 85.0001 225 88.0001C226.1 90.5001 227.7 93.8001 228.6 95.4001C229.4 97.0001 230.5 101.5 231.1 105.4C233.2 119.5 233.2 119.5 236.5 119.5C239.1 119.5 239.5 119.1 239.8 116.5C240 114.8 240.8 113.2 241.5 112.8C242.7 112.1 243.2 108.5 243.1 101.6C243.1 100 243.4 98.2001 243.9 97.6001C244.4 97.0001 245.3 94.5001 246 92.0001C247.4 86.6001 251.5 80.0001 253.5 80.0001C255.4 80.0001 257.4 84.6001 260.4 95.5001C261.7 100.4 263.5 106.5 264.4 109C265.3 111.5 266 114.2 266 115.1C266 117.2 270.7 120.3 272.6 119.6C273.4 119.3 274 118 274 116.7C274 115.3 275 113.6 276.3 112.7C278.3 111.4 278.4 111.1 276.9 109.4C274.7 106.7 271 100.1 271 98.7001C271 98.1001 269.9 94.6001 268.6 91.0001C267.3 87.4001 265.4 82.3001 264.5 79.5001C263.5 76.8001 261.6 73.6001 260.4 72.3001C257.2 69.1001 251.1 69.2001 247.3 72.4001Z" fill="black"/>
<path d="M191.2 75.8C190.3 76.4 190.2 79.4 191 89.6C192.2 105.2 193.7 112.4 196.1 114.6C198.2 116.5 201.5 115.7 202.4 113.2C202.7 112.3 203.5 110.7 204.2 109.8C205.2 108.4 205.1 107.8 203.6 106.2C202.3 104.7 201.6 100.9 200.6 91C199.9 83.8 198.9 77.5 198.4 77C197 75.6 192.6 74.9 191.2 75.8Z" fill="black"/>
</svg>
