<svg width="325" height="214" viewBox="0 0 325 214" fill="none" xmlns="http://www.w3.org/2000/svg">
<path d="M47.7994 28C46.1994 30.3 44.9994 32.8 44.9994 33.5C44.9994 34.3 44.5994 35.2 43.9994 35.5C43.4994 35.8 42.9994 37.4 42.9994 38.9C42.9994 40.4 42.5994 42 41.9994 42.6C41.4994 43.1 40.7994 46.7 40.3994 50.5C40.0994 54.4 39.4994 60.9 39.0994 65C37.8994 75.9 40.2994 109.4 42.3994 112.9C42.7994 113.4 43.2994 118.1 43.5994 123.2L44.1994 132.6L37.3994 136.6C29.9994 140.9 29.0994 142 31.3994 144.3C32.6994 145.5 34.4994 145.7 39.9994 145.3L46.9994 144.8V149C46.9994 152.8 47.6994 155.9 50.9994 167.5C51.4994 169.1 52.5994 174.3 53.5994 179C55.3994 188.5 56.9994 191 61.1994 191C63.0994 191 64.2994 190.4 64.5994 189.2C64.8994 188.3 65.5994 186.7 66.0994 185.8C67.1994 183.6 67.2994 180.3 66.0994 179.6C64.7994 178.8 61.7994 169 62.3994 167.4C62.6994 166.6 62.5994 166 62.0994 166C61.6994 166 60.6994 163.4 60.0994 160.2C59.3994 157.1 58.3994 153.2 57.8994 151.6C55.8994 145.2 56.1994 145 64.8994 145.7C72.4994 146.3 72.7994 146.2 73.9994 143.9C74.6994 142.6 75.5994 141.3 75.8994 141C77.3994 139.8 78.6994 134.2 77.7994 132.6C76.8994 130.9 70.9994 130.3 70.9994 131.9C70.9994 133.3 65.1994 135 60.4994 135C55.9994 135 54.0994 133.7 54.0994 130.5C53.9994 126.2 51.5994 105.9 50.2994 99.5C49.9994 97.8 49.6994 87.5 49.5994 76.5C49.2994 54.3 50.8994 40.6 53.8994 38C54.7994 37.2 55.8994 35.7 56.2994 34.7C56.5994 33.8 57.9994 33 59.2994 33C62.5994 33 71.9994 42.9 71.9994 46.4C71.9994 47.8 72.3994 49 72.7994 49C73.2994 49 74.3994 52 75.3994 55.7C79.0994 70.2 80.2994 84.8 78.3994 93.7C77.0994 100.1 77.0994 100.5 78.9994 102.5C82.2994 105.7 85.0994 103 87.9994 93.7C90.0994 86.8 89.2994 63.4 86.7994 60.3C86.2994 59.7 85.7994 58.1 85.5994 56.8C85.4994 55.5 84.5994 53.1 83.7994 51.5C82.8994 49.8 81.8994 46.8 81.4994 44.7C81.0994 42.7 79.6994 39.8 78.3994 38.3C77.0994 36.8 75.9994 35.3 75.9994 35C75.9994 34.7 74.5994 33.6 72.8994 32.6C71.0994 31.6 68.8994 30 67.8994 29.1C63.5994 25.2 62.4994 24.7 56.6994 24.3L50.4994 23.8L47.7994 28Z" fill="black"/>
<path d="M239.3 50.6C238 51.2 238.6 57.1 240.1 58C240.5 58.3 241.8 62.3 243 67C245.2 75.6 246.4 85.5 246.5 96.5V102.5L243 102C235.1 100.9 224.2 101.5 222.4 103.1C221.3 104 219.6 105 218.4 105.4C214.2 106.7 211.7 110.6 211.5 116.1C211.4 119.7 210.8 121.5 209.7 122.1C208.5 122.8 208.2 123.9 208.7 126.3C209.5 130.5 215.3 139.5 218.2 141.2C221.6 143.1 234.4 142.4 241 140C248.3 137.3 251.4 137.4 253.8 140.5C254.9 141.9 256.2 143 256.7 143C257.3 143 258.5 143.9 259.5 145C260.5 146.1 261.8 147 262.4 147C263 147 264.9 147.7 266.5 148.6C268.4 149.7 271.6 150.2 275.4 150.1C280.5 149.9 281.9 149.4 285.5 146.4C287.9 144.5 290.4 141.5 291.1 139.7C291.8 137.9 293 135.8 293.7 134.8C295.6 132.7 295 128 292.7 126.6C291.2 125.7 290.5 125.9 289 127.7C288 129 286.6 130 285.9 130C285.2 130 284.9 130.3 285.3 130.6C285.6 130.9 285.1 132 284.2 133C283.3 134 281.7 136 280.7 137.4C277.7 141.7 272.1 140.8 265.5 135.1C262.9 132.8 262.5 131.8 262.5 127.5C262.5 124.7 262.9 121.7 263.4 120.8C263.8 119.9 263.9 118.6 263.5 118.1C263.2 117.5 263.3 116.2 263.9 115.3C265.3 112.6 264.1 108 262 108C258.9 108 257.7 105.2 257.3 97.2C256.6 80.6 256 74.9 254.5 68.8C253.6 65.3 252.8 62.1 252.7 61.7C252.6 61.2 251.3 58.5 249.9 55.7C247.6 51.1 247 50.5 243.9 50.3C242 50.2 240 50.3 239.3 50.6ZM240.3 108.1C241.5 108.8 243.7 110.6 245.3 112.1C247.6 114.5 248 115.9 248 120.3C248 125.6 248 125.7 243.8 127.7C234.3 132.4 223.4 133.6 222.2 130.1C222 129.5 221.3 128.4 220.6 127.7C219 126.2 217 120.4 217 117.5C217 114.9 220.8 109.7 222.1 110.5C222.6 110.9 223 110.6 223 110.1C223 109.5 223.9 109 224.9 109C226 109 227.2 108.5 227.5 108C228.3 106.6 237.6 106.7 240.3 108.1Z" fill="black"/>
<path d="M162.8 100.3C161.4 101 159.3 102.4 158.1 103.4C155.4 105.8 152.8 112.9 153.2 116.6C153.5 119.1 153.2 119.5 151.2 119.2C146.4 118.5 144 123.8 148.3 125.7C150.3 126.6 150.5 127.4 150.3 132.9L150.1 139L156.4 145.4C161.2 150.3 163.6 152 166.5 152.6C171.7 153.5 186 152.4 189 150.8C194 148.1 199.9 143.8 200.4 142.4C200.7 141.6 201.6 141 202.5 141C204.3 141 204.6 136 202.8 134.2C201.4 132.8 195 132.6 195 133.9C195 134.4 193.1 136.5 190.7 138.4C187.3 141.2 184.9 142.2 179.4 143.1C173.1 144.1 171.9 144 168.6 142.5C164.4 140.5 160.2 135 160.4 131.7C160.5 129.8 161.4 129.4 167.9 128.2C174.9 126.9 179.9 124.6 180 122.6C180 122.1 180.8 121 181.8 120.1C182.8 119.2 184.1 116.1 184.7 113.2C185.7 108.3 185.6 107.9 183.1 105.4C177.7 100 168.7 97.7 162.8 100.3ZM174.5 113.9C174.5 116 169.6 119.2 166.9 118.8L164.5 118.5L167.7 115.2C171 111.9 174.5 111.2 174.5 113.9Z" fill="black"/>
<path d="M109.299 103.4C101.399 105.1 95.1994 111.7 97.0994 116.7C97.6994 118.2 97.3994 119.3 95.8994 120.6C93.7994 122.5 93.1994 129.4 94.9994 130.5C95.5994 130.9 95.7994 131.6 95.3994 132.1C93.3994 135.4 101.199 146.7 108.899 151.4C113.199 154.1 122.199 157 125.999 157C132.699 157 143.999 151.3 143.999 147.8C143.999 147.2 144.899 146 145.899 145.1C146.999 144.1 147.999 142.1 148.199 140.4C148.499 137.8 148.199 137.5 145.399 137.2C142.999 137 141.699 137.7 138.899 140.5C133.799 145.9 130.699 147.2 125.199 146.4C118.999 145.5 113.499 142.9 110.999 139.8C108.499 136.6 108.399 135 110.799 135C113.599 134.9 120.599 131.4 123.799 128.3C127.399 124.8 129.299 119.2 128.699 113.9C127.799 105.6 119.799 101.3 109.299 103.4ZM117.799 116.8C118.299 121.5 112.199 126.8 107.999 125.5C106.199 124.9 106.199 124.7 107.799 121.2C110.999 114.1 112.899 112 115.299 112.9C116.799 113.5 117.599 114.7 117.799 116.8Z" fill="black"/>
</svg>
