<svg width="325" height="167" viewBox="0 0 325 167" fill="none" xmlns="http://www.w3.org/2000/svg">
<path d="M47.7997 13.1C43.2997 15.4 36.4997 23.7 33.7997 30C29.9997 38.8 28.8997 47 29.9997 59.6C30.4997 65.9 31.3997 72.5 31.8997 74.3C32.4997 76.1 33.5997 82.9 34.4997 89.5C35.3997 96.8 36.7997 103 38.0997 105.3C39.0997 107.4 39.7997 109.5 39.4997 110C39.1997 110.5 36.9997 111.6 34.4997 112.6C31.4997 113.7 29.9997 114.9 29.9997 116.1C29.9997 118.7 31.6997 119.4 38.3997 119.4C44.0997 119.5 44.3997 119.6 45.2997 122.5C45.7997 124.1 46.8997 126.2 47.5997 127.1C48.3997 127.9 48.9997 129.2 48.9997 129.8C48.9997 130.4 50.3997 133.1 51.9997 135.7C53.6997 138.3 54.9997 141.7 54.9997 143.2C54.9997 144.7 55.3997 146 55.8997 146C56.3997 146 56.9997 146.9 57.2997 148.1C57.6997 149.6 58.4997 150.1 60.4997 149.8C62.5997 149.6 63.4997 148.7 64.4997 145.6C65.7997 142 65.6997 141.4 63.0997 136.6C61.4997 133.8 59.0997 129.7 57.5997 127.6C56.1997 125.5 54.9997 123.1 54.9997 122.3C54.9997 121.6 54.4997 120.1 53.7997 119C53.0997 118 52.8997 116.8 53.2997 116.4C53.5997 116 57.5997 115.1 62.1997 114.3C71.9997 112.6 73.5997 111.8 74.1997 108.6C75.0997 104.1 73.8997 103.5 66.2997 104.9C52.9997 107.4 51.4997 107.6 49.7997 107.2C47.0997 106.7 43.0997 93.9 42.0997 82.3C41.5997 76.7 40.7997 71.5 40.3997 70.8C39.4997 69.3 39.4997 69.5 38.5997 52.9L37.7997 40.4L41.4997 33.4C43.5997 29.6 46.3997 25.3 47.7997 23.8C50.0997 21.3 55.4997 19.2 56.5997 20.3C56.8997 20.5 57.6997 26.8 58.5997 34.1C59.7997 44.6 59.8997 48.8 58.9997 53.5C57.0997 63.9 55.7997 67.1 53.1997 68.1C51.2997 68.8 50.8997 69.6 51.1997 72.2C51.4997 75 51.8997 75.6 54.2997 75.8C57.8997 76.2 60.6997 73.8 63.2997 68C68.9997 55.4 69.4997 31.2 64.3997 19.3C63.5997 17.6 62.9997 15.3 62.9997 14.2C62.9997 13.1 62.2997 11.9 61.3997 11.6C58.2997 10.4 51.3997 11.1 47.7997 13.1Z" fill="black"/>
<path d="M124.3 34.6C122.8 35.3 122.7 38.5 124 45.9C124.5 49 126.1 58.5 127.5 67C131.6 91.3 132.1 94.3 132.7 97C133.6 100.8 133.8 102.1 134.3 107C135 113.7 138.4 127.6 140.2 131.7C141.4 134.2 144.8 135.4 146.7 133.9C148.8 132.1 149.4 126 147.8 123.1C145.8 119.6 143.7 110.7 140.5 92.5C139.1 84.2 137.1 72.3 136 66C134.9 59.7 133.6 51.3 133.1 47.3C131.7 36.4 129.1 32.6 124.3 34.6Z" fill="black"/>
<path d="M199.3 69C198 69.5 197 70.6 197 71.5C197 72.3 196.6 73.8 196.1 74.8C194.1 78.7 191.2 85.8 190.1 89.6C189.4 91.8 188 94.1 187 94.8C185.5 95.7 184.4 95.1 180.1 90.5C177.2 87.5 174.5 83.7 173.9 82C173 79.5 172.3 79 169.7 79C164.8 79.1 162.6 81.2 163.3 85.2C164 88.4 166.9 102.7 169.1 112.5C169.7 115.2 170.3 118.5 170.5 119.7C171.1 124.2 173.4 127.8 175.8 128.3C177.8 128.7 178.5 128.1 179.7 125.1C181.6 120.8 181.6 121 179.6 113.7C176.9 103.9 177.6 102.2 182.8 106C184.3 107 186.8 108 188.5 108.2C191.1 108.5 191.7 108 194 103.5C195.4 100.7 197.4 95.9 198.4 92.8C200.2 87.2 203 84.3 203 87.8C203 88.7 204.6 92.6 206.5 96.4C208.4 100.3 210 104 210 104.7C210 107.9 215.6 122.8 218.2 126.4C219.7 128.5 220.7 130.6 220.4 131.1C220.1 131.6 221.4 132 223.3 132C226.4 132 226.9 131.6 228.5 127.5C230.5 122.1 230 120.2 226 118.7C224 117.9 222.7 116.6 222.3 115C221 109.3 214.6 91.3 213.1 89C212.1 87.6 210.8 84.5 210.1 82C209.4 79.5 208.2 76.1 207.5 74.5C206.8 72.8 206 70.7 205.6 69.7C205 67.9 202.8 67.6 199.3 69Z" fill="black"/>
<path d="M92.5999 71.5C90.4999 73.1 90.8999 76.8 93.5999 79.4C96.0999 81.9 99.1999 79.2 99.5999 74.1C99.9999 70.2 99.8999 70 97.1999 70C95.6999 70 93.6999 70.7 92.5999 71.5Z" fill="black"/>
<path d="M249 72.9C237.4 77.7 236.5 78.6 234.8 88.3C232.6 100.2 234.5 109.5 240.1 115.5C241.7 117.2 243 119.1 243 119.8C243 120.4 243.7 120.7 244.5 120.4C245.3 120 246 120.3 246 120.8C246 123.6 259.3 124.9 266.2 122.8C272.3 121 275 117.9 275 112.8C274.9 107.6 273 104.7 269.8 105.2C267.9 105.4 267.4 106.2 267.2 109.2C266.9 112.3 266.4 113 263.8 113.9C259.7 115.4 256.6 115.3 252.6 113.6C244.1 110.1 240.1 99.8 248.5 103C254.2 105.2 264 93.9 264 85.2C264 80.6 260.8 73.5 258.2 72.1C255.5 70.7 254.3 70.8 249 72.9ZM255.5 84.1C256.3 86.4 254.8 89.3 251.4 91.9C248.3 94.4 245.7 94.6 244 92.6C242.3 90.4 245.4 84.6 249.2 82.7C252.8 81 254.7 81.4 255.5 84.1Z" fill="black"/>
<path d="M291.5 71.8C284.6 73.1 276.5 79.3 275.4 84.2C274.9 86.7 275.3 87.6 278 89.8C279.8 91.3 281.5 92.5 281.9 92.5C285.3 92.8 287.7 94.3 294.3 100.1C300.6 105.7 300.8 109.4 295 115.1C290.4 119.7 288.3 119.9 284 116.3C281.6 114.3 280.4 113.9 279.2 114.6C276.2 116.5 275.6 118.6 277 121.9C278 124.4 279 125.1 282.1 125.6C284.3 126 286.3 126.6 286.5 127.1C287.3 128.3 295.3 127.1 297.1 125.4C297.9 124.6 298.9 124 299.3 124C299.6 124 301 122.9 302.3 121.6C305.6 118.3 308 111.9 308 106.5C308 102.2 307.6 101.6 300.6 94.7C296.6 90.8 292.5 86.9 291.6 86.2C289.3 84.4 289.6 83.1 292.6 82C294.4 81.3 295.9 81.4 298 82.5C302.1 84.6 304.7 84.4 306.6 81.5C308.6 78.5 308 77.5 302.7 74.9C297.3 72.2 294 71.3 291.5 71.8Z" fill="black"/>
<path d="M90.6999 89.2C90.1999 90.6 91.3999 99.5 92.5999 103.3C93.2999 105.3 95.1999 114 96.6999 121.5C97.8999 127.8 101.8 130.8 104.8 127.8C106.2 126.4 106.4 119.8 105.1 118.4C104.6 117.9 104 115.7 103.7 113.5C103.2 109 99.1999 92.3 97.9999 90C97.0999 88 91.3999 87.4 90.6999 89.2Z" fill="black"/>
</svg>
