<svg width="128" height="1430" viewBox="0 0 128 1430" fill="none" xmlns="http://www.w3.org/2000/svg">
<g clip-path="url(#clip0)">
<path d="M-2.04853 16.6401C-0.748531 23.1401 2.95147 35.9401 3.95147 37.2401C4.35147 37.7401 4.95147 40.0401 5.15147 42.1401C5.65147 46.3401 7.85146 48.6401 11.1515 48.6401C13.9515 48.6401 15.3515 47.5401 16.1515 45.1401C16.7515 43.0401 16.6515 42.4401 11.9515 28.6401C9.25147 20.7401 8.85147 17.1401 10.8515 17.8401C11.2515 18.0401 16.6515 22.9401 22.6515 28.8401C33.6515 39.5401 36.6515 41.4401 41.1515 40.2401C45.6515 39.1401 50.6515 25.8401 51.2515 13.9401C51.6515 6.04006 51.5515 5.64011 48.8515 2.74011C47.2515 1.04011 45.0515 -0.359863 44.0515 -0.359863C40.4515 -0.359863 39.8515 1.54016 40.4515 10.0402C41.0515 18.6402 39.5515 26.6401 37.4515 26.6401C35.3515 26.6401 31.2515 23.3401 25.7515 17.1401C18.8515 9.44014 13.4515 4.94006 8.15147 2.44006C2.65147 -0.0599365 0.651469 0.340137 -1.44853 4.64014C-3.34853 8.54014 -3.44853 10.1401 -2.04853 16.6401Z" fill="black"/>
<path d="M-1.34844 302.14C-0.748437 302.44 -0.248438 304.04 -0.248438 305.74C-0.248438 307.34 0.151562 308.64 0.651562 308.64C1.15156 308.64 2.25156 310.34 3.05156 312.44C4.65156 316.44 15.0516 327.64 17.1516 327.64C17.8516 327.64 20.1516 328.94 22.3516 330.44C24.4516 331.94 28.7516 334.24 31.7516 335.54C34.7516 336.84 37.9516 338.24 38.7516 338.64C39.5516 339.04 42.9516 339.14 46.1516 338.94C60.6516 338.04 77.7516 321.84 77.7516 308.94C77.7516 304.24 75.2516 294.04 73.5516 291.94C72.8516 291.04 73.2516 289.84 74.9516 287.84C76.3516 286.24 77.9516 283.44 78.7516 281.74C79.8516 278.94 79.7516 278.34 78.1516 276.54C77.1516 275.34 74.9516 273.74 73.4516 272.94C69.8516 271.14 67.6516 272.64 68.0516 276.94C68.1516 278.54 67.7516 280.04 67.2516 280.24C66.6516 280.44 63.3516 278.74 59.7516 276.34C48.5516 269.04 37.5516 266.94 24.5516 269.74C9.25156 273.04 2.65156 279.24 -0.248438 293.14C-0.948438 296.44 -1.64844 299.64 -1.94844 300.24C-2.14844 300.94 -1.94844 301.74 -1.34844 302.14ZM10.9516 286.44C11.9516 284.34 14.0516 282.04 15.5516 281.24C22.2516 277.84 33.4516 277.14 41.6516 279.74C46.3516 281.24 53.7516 284.94 53.7516 285.74C53.7516 286.14 52.1516 287.34 50.2516 288.44C46.8516 290.44 44.4516 295.54 45.5516 298.34C46.1516 300.24 51.8516 299.84 56.0516 297.64C58.0516 296.54 60.5516 295.64 61.5516 295.64C64.0516 295.64 65.8516 299.94 66.4516 307.14C66.8516 312.54 66.5516 313.64 63.8516 317.84C60.2516 323.34 52.3516 327.64 44.5516 328.44C39.1516 328.94 38.2516 327.64 42.3516 325.04C44.1516 323.84 44.7516 322.64 44.5516 320.74C44.1516 317.44 41.1516 316.84 35.6516 319.04C30.1516 321.24 27.2516 321.04 25.0516 318.34C24.0516 317.04 21.5516 315.34 19.4516 314.74C9.85156 311.54 5.55156 297.14 10.9516 286.44Z" fill="black"/>
<path d="M0.951813 1326.64C1.45182 1328.54 2.45182 1332.34 3.15182 1335.14C3.85182 1337.84 4.95182 1341.44 5.55182 1342.94C6.25182 1344.54 6.75182 1346.44 6.75182 1347.24C6.75182 1348.14 7.25182 1349.64 7.85182 1350.74C8.35182 1351.84 9.05182 1353.94 9.25182 1355.44C9.85182 1358.84 11.7518 1366.44 12.7518 1369.14C13.1518 1370.24 13.5518 1372.04 13.5518 1373.24C13.5518 1374.44 14.3518 1377.14 15.3518 1379.24C16.2518 1381.34 17.1518 1383.34 17.1518 1383.64C17.2518 1383.94 17.7518 1385.44 18.3518 1387.14C19.0518 1388.74 20.0518 1392.14 20.7518 1394.64C21.4518 1397.14 22.3518 1400.04 22.7518 1401.14C23.1518 1402.24 24.0518 1404.94 24.6518 1407.14C26.4518 1412.94 29.9518 1419.74 31.5518 1420.34C32.2518 1420.64 33.9518 1419.94 35.2518 1418.64C38.2518 1415.84 38.4518 1408.04 35.5518 1407.24C34.5518 1407.04 33.7518 1405.94 33.7518 1404.84C33.7518 1403.74 31.7518 1396.74 29.2518 1389.24C26.8518 1381.74 25.0518 1374.94 25.3518 1374.24C25.6518 1373.44 27.9518 1372.34 30.5518 1371.64C33.1518 1371.04 35.7518 1370.04 36.4518 1369.44C37.1518 1368.94 38.5518 1368.74 39.7518 1369.14C40.8518 1369.44 41.7518 1369.34 41.7518 1368.84C41.7518 1366.94 59.5518 1364.44 90.3518 1362.14C98.5518 1361.54 99.6518 1361.64 100.851 1363.34C102.451 1365.34 104.951 1367.14 108.551 1368.64C109.851 1369.14 110.651 1370.04 110.351 1370.44C110.051 1370.94 111.151 1372.74 112.651 1374.54C116.251 1378.74 118.151 1386.84 117.851 1397.14C117.651 1404.14 117.251 1405.74 114.451 1410.44C110.251 1417.44 107.051 1418.84 95.7518 1418.54C82.7518 1418.34 77.0518 1421.54 81.0518 1426.74C81.7518 1427.64 84.6518 1428.74 87.7518 1429.14C95.0518 1430.14 107.751 1430.34 107.751 1429.34C107.751 1428.94 108.551 1428.64 109.451 1428.64C111.751 1428.64 121.851 1417.64 124.551 1412.34C126.551 1408.44 129.051 1392.94 128.251 1390.24C128.051 1389.64 127.651 1386.34 127.351 1382.84C126.951 1379.04 125.651 1374.24 124.051 1370.94C121.151 1364.74 115.351 1357.64 113.151 1357.64C112.351 1357.64 109.851 1355.94 107.651 1353.84C103.551 1350.24 103.251 1350.14 95.3518 1350.14C90.8518 1350.04 86.5518 1350.34 85.6518 1350.84C84.7518 1351.24 77.7518 1352.04 70.1518 1352.54C55.2518 1353.64 48.3518 1354.94 34.2518 1359.14C29.2518 1360.64 24.6518 1361.94 23.9518 1362.04C22.3518 1362.14 16.0518 1343.24 12.7518 1328.54C10.6518 1318.94 10.5518 1318.84 6.65182 1317.14C0.351813 1314.24 -1.64818 1317.54 0.951813 1326.64Z" fill="black"/>
<path d="M1.45146 171.84C2.95146 173.14 3.85146 173.24 6.75146 172.24C9.75146 171.34 10.2514 170.64 10.5514 167.64C10.8514 162.54 9.55146 161.14 4.55146 161.54C2.75146 161.64 -0.248535 166.34 -0.248535 168.94C-0.248535 169.74 0.551465 171.04 1.45146 171.84Z" fill="black"/>
<path d="M9.35173 116.84C10.1517 118.34 13.0517 121.24 15.7517 123.44C20.9517 127.64 21.1517 128.64 16.5517 128.64C12.5517 128.64 10.6517 132.74 13.2517 135.64C15.5517 138.14 20.4517 139.54 23.7517 138.54C29.4517 136.94 42.7517 134.64 50.0517 134.04C55.8517 133.64 58.4517 132.94 59.8517 131.54C62.4517 128.94 62.2517 126.84 59.3517 126.04C58.0517 125.74 56.6517 124.54 56.4517 123.44C55.9517 121.84 55.3517 121.54 53.5517 122.04C44.6517 124.64 34.6517 123.34 27.9517 118.74C26.4517 117.74 24.0517 116.14 22.4517 115.24C19.5517 113.44 18.9517 111.24 21.0517 109.94C23.1517 108.64 24.5517 104.34 24.0517 100.84C23.5517 98.1398 23.1517 97.6398 20.7517 97.6398C18.6517 97.6398 16.8517 98.9399 13.3517 103.04C8.25173 109.04 7.15173 112.74 9.35173 116.84Z" fill="black"/>
<path d="M10.6515 79.14C15.2515 88.94 21.1515 92.94 33.0515 94.34L40.7515 95.24L45.9515 90.4399C48.7515 87.8399 51.6515 85.64 52.4515 85.64C53.1515 85.64 54.6515 83.54 55.7515 81.04C57.4515 77.44 57.7515 75.44 57.2515 71.34C56.4515 64.94 55.7515 63.64 50.2515 57.84C46.0515 53.44 45.5515 53.24 39.4515 52.84C33.4515 52.44 32.5515 52.74 24.9515 56.64C17.0515 60.74 10.7515 66.74 10.7515 70.04C10.7515 70.84 10.2515 71.84 9.75151 72.14C8.35151 73.04 8.55151 74.54 10.6515 79.14ZM25.1515 66.64C30.6515 63.44 37.1515 62.04 41.2515 63.04C43.6515 63.64 47.7515 70.5399 47.7515 73.9399C47.7515 76.5399 43.7515 79.44 37.3515 81.64C30.8515 83.74 30.6515 83.7399 27.0515 81.9399C22.5515 79.8399 18.7515 74.44 19.4515 71.54C19.7515 70.44 22.3515 68.24 25.1515 66.64Z" fill="black"/>
<path d="M13.0515 500.543C15.3515 502.443 28.7515 503.643 42.4515 503.243C49.7515 503.043 55.7515 503.243 55.7515 503.643C55.7515 504.043 54.6515 506.443 53.2515 509.043C51.8515 511.643 50.7515 514.543 50.7515 515.543C50.7515 516.543 50.0515 517.943 49.2515 518.643C48.4515 519.343 48.0515 520.343 48.4515 520.943C48.8515 521.643 49.2515 523.743 49.3515 525.843C49.7515 533.843 60.6515 542.243 71.9515 543.343C80.1515 544.043 84.3515 542.943 88.6515 538.743C91.8515 535.743 92.6515 534.043 93.6515 528.543C95.2515 520.443 94.2515 516.043 88.8515 507.243C86.7515 503.843 84.6515 499.543 84.2515 497.843C83.9515 496.043 82.9515 494.643 82.1515 494.643C81.3515 494.643 80.7515 493.943 80.7515 493.143C80.7515 492.343 79.8515 491.243 78.8515 490.643C73.8515 488.043 73.6515 487.043 77.2515 481.043C79.1515 477.943 80.9515 474.043 81.3515 472.343C81.6515 470.543 82.4515 468.543 83.0515 467.843C83.6515 467.143 84.2515 463.743 84.4515 460.243C84.7515 454.543 84.5515 453.743 81.9515 451.343C79.4515 448.943 78.8515 448.743 76.4515 449.943C72.4515 451.743 71.3515 454.643 73.1515 458.043C73.9515 459.643 74.4515 461.443 74.2515 462.043C70.2515 475.243 68.2515 478.643 64.4515 478.643C62.9515 478.643 62.6515 478.143 63.0515 476.543C63.6515 474.443 59.7515 467.443 57.4515 466.243C56.7515 465.843 54.8515 464.743 53.2515 463.643C44.9515 458.143 39.4515 457.343 35.1515 460.943C32.9515 462.843 32.4515 464.143 32.4515 467.743C32.4515 476.143 39.2515 486.543 46.4515 489.043C50.0515 490.343 50.6515 490.243 52.0515 488.943C53.1515 487.843 54.5515 487.643 57.6515 488.143C62.0515 488.843 63.7515 490.343 61.7515 491.643C59.9515 492.743 21.4515 493.443 20.0515 492.443C19.4515 491.943 17.7515 491.843 16.3515 492.243C12.2515 493.243 10.3515 498.243 13.0515 500.543ZM46.9515 470.743C49.4515 472.143 50.2515 474.343 48.7515 476.143C47.2515 477.943 44.8515 477.043 43.7515 474.243C42.6515 471.343 44.3515 469.343 46.9515 470.743ZM62.4515 511.943C65.2515 507.543 71.6515 503.243 73.8515 504.143C74.6515 504.443 76.4515 506.443 78.0515 508.643C85.3515 518.943 85.5515 532.643 78.3515 532.643C77.1515 532.643 75.6515 533.043 74.8515 533.543C74.0515 534.043 72.4515 533.843 70.8515 533.043C69.4515 532.243 67.5515 531.643 66.6515 531.643C65.7515 531.643 63.8515 529.943 62.4515 527.843C58.9515 522.743 58.9515 517.343 62.4515 511.943Z" fill="black"/>
<path d="M18.8513 205.44C21.9513 209.44 22.3513 211.64 20.6513 213.34C18.8513 215.14 20.3513 216.34 24.9513 217.04C30.3513 217.84 44.6513 224.84 47.7513 228.14C49.0513 229.54 50.5513 230.64 51.1513 230.64C53.3513 230.74 57.8513 235.74 58.0513 238.24C58.3513 242.24 54.2513 244.74 46.1513 245.64C40.5513 246.24 38.3513 246.04 34.3513 244.44C27.8513 241.94 25.5513 242.74 25.9513 247.34C26.2513 250.34 26.8513 251.24 30.7513 253.34C34.7513 255.54 36.1513 255.74 44.2513 255.34C57.5513 254.74 67.5513 249.54 70.5513 241.54C71.3513 239.54 71.1513 238.14 69.4513 235.14C67.2513 231.24 53.6513 218.94 48.4513 216.04C44.6513 214.04 45.0513 212.74 49.7513 212.04C51.9513 211.64 53.7513 211.04 53.7513 210.64C53.7513 210.24 54.8513 209.44 56.1513 208.84C57.3513 208.34 59.7513 205.64 61.3513 202.94C63.8513 198.74 64.1513 197.24 64.0513 190.44C64.0513 183.44 63.7513 182.44 60.8513 178.74C59.1513 176.64 56.3513 174.34 54.6513 173.74C51.9513 172.84 51.3513 172.94 49.1513 175.14C46.0513 178.24 46.1513 179.14 49.7513 181.34C55.1513 184.44 55.8513 192.84 51.2513 199.34C48.9513 202.64 47.1513 202.14 44.7513 197.84C41.9513 192.84 30.8513 186.54 26.2513 187.24C18.0513 188.54 18.1513 188.54 16.8513 196.94C16.1513 201.24 16.3513 202.04 18.8513 205.44ZM28.6513 197.64C30.4513 197.64 32.7513 199.44 32.7513 200.84C32.7513 201.94 31.4513 201.84 28.2513 200.64C25.4513 199.54 25.6513 197.64 28.6513 197.64Z" fill="black"/>
<path d="M20.7515 173.14C21.9515 173.84 30.5515 172.84 37.7515 171.14C40.7515 170.34 45.4515 169.54 48.0515 169.24C57.9515 168.04 61.5515 163.74 56.4515 159.04L53.9515 156.74L43.5515 159.24C27.5515 163.14 25.4515 163.84 22.4515 166.54C19.7515 169.04 18.9515 172.04 20.7515 173.14Z" fill="black"/>
<path d="M39.1515 682.143C39.7515 684.343 41.0515 687.543 41.9515 689.143C44.0515 693.043 52.8515 701.343 56.2515 702.643C59.6515 703.943 67.4515 703.943 68.2515 702.643C70.3515 699.243 74.5515 704.043 75.3515 710.743C75.6515 713.043 76.5515 716.543 77.3515 718.443C79.6515 723.943 79.5515 731.543 77.2515 733.243C74.3515 735.343 71.8515 734.943 68.8515 731.743C65.0515 727.643 60.5515 718.743 61.2515 716.543C61.9515 714.243 60.1515 710.643 58.3515 710.643C55.3515 710.643 51.0515 721.243 52.7515 724.543C53.1515 725.443 54.1515 727.443 54.8515 729.143C55.5515 730.743 57.8515 734.343 59.9515 737.043C62.0515 739.743 63.7515 742.443 63.7515 743.243C63.7515 743.943 62.6515 745.743 61.3515 747.343C60.1515 748.843 58.2515 751.843 57.2515 753.843C54.5515 759.743 52.7515 758.843 51.2515 751.043C51.0515 750.043 50.8515 748.843 50.8515 748.343C50.6515 746.643 44.7515 747.743 42.7515 749.843C40.1515 752.643 40.9515 757.943 44.4515 761.843C45.8515 763.243 46.8515 764.843 46.7515 765.343C46.0515 767.743 58.2515 769.943 61.3515 767.843C61.9515 767.443 63.9515 764.243 65.6515 760.643C70.5515 750.543 75.0515 748.043 78.4515 753.343C79.4515 754.943 80.7515 756.743 81.4515 757.443C83.8515 759.943 82.9515 764.443 79.7515 766.843C77.7515 768.243 76.7515 769.843 76.9515 771.143C77.6515 776.143 89.2515 770.943 92.6515 764.043C94.9515 759.343 92.8515 751.743 87.8515 746.843L83.8515 742.943L86.3515 739.343C88.6515 735.843 91.0515 727.243 89.9515 726.143C89.6515 725.843 88.3515 721.443 87.0515 716.443C84.2515 705.343 83.2515 703.143 79.3515 698.943C76.3515 695.643 76.3515 695.643 78.0515 692.243C83.0515 681.743 80.2515 669.543 71.2515 662.343C64.4515 656.943 60.4515 655.343 55.4515 656.243C43.5515 658.243 35.8515 670.443 39.1515 682.143ZM47.7515 671.243C48.2515 669.843 50.0515 668.043 51.7515 667.143C55.8515 665.043 60.0515 666.343 65.6515 671.643C69.0515 674.943 69.7515 676.243 69.7515 679.343C69.7515 682.043 69.1515 683.543 67.7515 684.443C66.6515 685.143 65.7515 686.643 65.7515 687.943C65.7515 690.543 64.0515 692.643 61.9515 692.643C60.1515 692.643 50.7515 685.643 50.7515 684.343C50.7515 683.843 49.8515 682.343 48.7515 680.943C46.5515 678.143 46.2515 675.143 47.7515 671.243Z" fill="black"/>
<path d="M40.4515 1168.04C40.8515 1168.34 42.2515 1168.64 43.7515 1168.64C48.4515 1168.64 51.5515 1162.84 48.5515 1159.84C46.9515 1158.24 43.2515 1158.34 41.8515 1160.04C40.4515 1161.64 39.5515 1167.14 40.4515 1168.04Z" fill="black"/>
<path d="M43.3516 1066.64C45.2516 1070.14 46.7516 1073.64 46.7516 1074.34C46.7516 1076.64 51.6516 1075.74 53.3516 1073.14C55.1516 1070.34 54.6516 1064.94 52.1516 1061.04C50.7516 1058.94 50.7516 1058.64 52.9516 1057.34C54.2516 1056.54 56.4516 1055.64 57.9516 1055.24L60.6516 1054.64L60.4516 1060.44C60.2516 1065.64 60.6516 1066.84 63.7516 1071.44C71.2516 1082.64 86.3516 1085.04 92.1516 1076.14C95.0516 1071.74 95.3516 1061.84 92.7516 1056.14C91.6516 1053.64 90.2516 1051.64 89.7516 1051.64C88.0516 1051.64 88.6516 1048.04 90.7516 1046.14C91.8516 1045.14 92.7516 1043.34 92.7516 1042.14C92.7516 1040.94 93.0516 1039.74 93.3516 1039.34C93.7516 1039.04 94.0516 1035.64 94.2516 1031.94C94.3516 1026.04 94.0516 1024.44 91.3516 1019.64C88.0516 1013.54 87.4516 1012.94 83.4516 1010.34C80.7516 1008.54 80.4516 1008.54 78.6516 1010.24C76.4516 1012.24 76.1516 1016.14 78.0516 1017.34C80.7516 1019.04 82.7516 1023.84 83.3516 1029.94C84.1516 1039.54 83.2516 1040.24 67.3516 1042.14C52.0516 1043.94 45.6516 1046.34 42.1516 1051.54C38.9516 1056.24 39.1516 1058.84 43.3516 1066.64ZM72.5516 1056.84C74.7516 1054.04 78.5516 1054.14 80.1516 1057.14C80.7516 1058.24 81.6516 1059.44 82.0516 1059.74C83.6516 1060.94 83.9516 1067.14 82.4516 1069.04C81.1516 1070.84 80.7516 1070.84 77.7516 1069.64C74.5516 1068.34 70.7516 1063.44 70.7516 1060.64C70.7516 1059.84 71.6516 1058.04 72.5516 1056.84Z" fill="black"/>
<path d="M43.2515 911.043C44.6515 913.843 45.7515 916.643 45.7515 917.343C45.7515 918.043 46.1515 918.643 46.6515 918.643C47.1515 918.643 47.9515 919.543 48.2515 920.643C48.9515 922.943 53.3515 927.643 54.7515 927.643C55.3515 927.643 55.7515 928.543 55.7515 929.643C55.7515 930.943 56.4515 931.643 57.5515 931.643C58.6515 931.643 60.9515 932.443 62.8515 933.343C67.3515 935.643 77.8515 936.243 82.9515 934.643C86.2515 933.443 89.8515 930.343 94.7515 923.943C95.2515 923.343 96.5515 920.243 97.5515 917.043C99.2515 911.843 99.2515 910.443 98.1515 903.543C97.1515 897.243 96.2515 894.843 92.7515 890.043C90.4515 886.743 87.8515 883.043 87.0515 881.643C84.8515 878.243 76.3515 872.643 73.2515 872.643C71.4515 872.643 70.4515 873.343 69.6515 875.343C68.7515 877.743 69.0515 878.443 71.5515 881.143C84.4515 894.443 87.2515 898.743 88.2515 907.343C89.0515 914.143 87.8515 917.343 83.2515 921.643C80.6515 924.043 79.4515 924.243 68.5515 923.743C62.3515 923.443 51.3515 908.743 50.1515 899.143C49.3515 893.443 48.2515 891.643 45.6515 891.643C43.1515 891.643 41.6515 894.743 41.1515 900.943C40.8515 905.043 41.2515 907.143 43.2515 911.043Z" fill="black"/>
<path d="M43.7517 833.642C44.7517 835.542 48.5517 840.242 52.1517 844.142C58.6517 851.042 59.6517 852.642 57.7517 852.642C57.1517 852.642 55.8517 854.042 54.7517 855.842C53.3517 858.142 53.1517 859.442 53.8517 860.842C55.2517 863.542 65.1517 862.942 69.4517 859.842C74.2517 856.442 82.9517 852.642 85.9517 852.642C89.4517 852.642 95.3517 847.642 94.4517 845.342C94.1517 844.542 92.2517 843.042 90.1517 842.042C86.6517 840.342 86.1517 840.342 78.0517 842.342L69.6517 844.342L65.9517 841.642C63.9517 840.142 60.5517 837.242 58.4517 835.342C54.6517 831.842 54.6517 831.742 55.2517 825.942C55.8517 820.642 55.7517 819.942 53.5517 817.942C50.9517 815.442 50.6517 815.542 45.4517 821.442C41.3517 826.142 40.9517 828.542 43.7517 833.642Z" fill="black"/>
<path d="M47.4515 783.343C49.8515 784.343 53.3515 784.943 56.7515 784.743C64.4515 784.443 74.4515 787.743 79.1515 792.043C81.1515 793.943 82.7515 796.143 82.7515 796.943C82.7515 800.943 72.3515 804.543 62.1515 804.043C56.4515 803.743 55.9515 803.943 54.9515 806.143C53.3515 809.643 54.2515 811.243 59.4515 813.143C65.2515 815.343 74.4515 814.743 81.2515 811.743C87.4515 809.043 89.9515 806.643 92.2515 801.543C93.8515 798.143 93.8515 797.043 92.8515 793.543C89.4515 782.043 75.9515 774.643 56.0515 773.343C48.0515 772.743 47.7515 772.843 45.7515 775.343C42.6515 779.243 43.1515 781.543 47.4515 783.343Z" fill="black"/>
<path d="M48.1516 1109.64C50.3516 1117.44 57.5516 1128.64 60.3516 1128.64C61.1516 1128.64 61.7516 1129.04 61.7516 1129.64C61.7516 1131.44 68.5516 1133.74 74.5516 1133.94C80.5516 1134.04 80.7516 1133.94 86.4516 1129.04C90.8516 1125.14 92.7516 1122.64 94.4516 1118.04C98.0516 1108.84 97.1516 1099.94 92.1516 1094.84C91.3516 1094.14 90.7516 1093.04 90.7516 1092.34C90.7516 1090.54 82.5516 1083.64 80.4516 1083.64C76.5516 1083.64 73.8516 1091.64 77.2516 1093.04C78.0516 1093.34 78.7516 1094.14 78.7516 1094.84C78.7516 1095.54 79.6516 1096.74 80.6516 1097.34C83.1516 1098.94 86.8516 1107.14 86.3516 1109.94C86.0516 1111.14 85.8516 1112.44 85.8516 1112.74C85.7516 1113.04 84.3516 1115.14 82.6516 1117.24C79.5516 1121.24 75.7516 1123.54 72.2516 1123.64C70.0516 1123.64 61.7516 1117.04 61.7516 1115.34C61.7516 1114.74 60.5516 1112.74 59.1516 1110.84C55.7516 1106.44 54.5516 1101.24 55.8516 1096.34C56.8516 1092.54 55.8516 1089.64 53.6516 1089.64C52.6516 1089.64 50.8516 1092.84 50.4516 1095.44C50.2516 1096.54 49.6516 1098.04 49.0516 1098.84C47.1516 1101.04 46.8516 1104.94 48.1516 1109.64Z" fill="black"/>
<path d="M57.7515 1316.44C59.4515 1319.94 60.7515 1323.54 60.7515 1324.54C60.7515 1326.34 65.3515 1331.14 70.2515 1334.14C71.8515 1335.24 75.2515 1336.14 77.7515 1336.34C80.2515 1336.44 85.2515 1336.84 88.8515 1337.14C96.4515 1337.94 99.7515 1336.74 105.251 1331.24C107.051 1329.44 109.151 1327.64 110.051 1327.34C111.351 1326.84 112.951 1321.94 114.251 1314.24C114.751 1310.64 112.151 1301.14 109.651 1297.44C108.551 1296.04 107.751 1294.54 107.751 1294.24C107.751 1293.94 105.951 1291.34 103.751 1288.34C100.951 1284.64 98.6515 1282.64 96.2515 1281.94C92.0515 1280.64 90.7515 1281.74 90.2515 1287.24C89.8515 1292.14 91.4515 1295.64 94.2515 1295.64C96.5515 1295.64 100.251 1298.84 99.1515 1299.94C98.8515 1300.24 99.5515 1301.74 100.651 1303.34C105.351 1309.64 103.651 1321.04 97.6515 1324.04C90.5515 1327.54 88.7515 1325.64 88.4515 1314.44C88.2515 1307.24 87.8515 1305.64 85.5515 1302.24C79.8515 1294.04 70.1515 1291.44 62.6515 1296.24C60.4515 1297.54 58.7515 1299.04 58.7515 1299.54C58.7515 1300.04 58.1515 1301.14 57.4515 1301.84C54.5516 1304.74 54.6516 1309.84 57.7515 1316.44ZM67.3515 1305.24C72.2515 1303.34 76.8515 1306.64 78.6515 1313.14C79.9515 1317.84 80.0515 1323.64 78.9515 1323.64C77.5515 1323.64 69.7515 1315.64 69.7515 1314.24C69.7515 1313.54 68.8515 1312.14 67.7515 1311.14C65.3515 1308.94 65.1515 1306.04 67.3515 1305.24Z" fill="black"/>
<path d="M57.9516 1163.04C62.1516 1163.74 70.6516 1162.94 77.7516 1161.14C80.7516 1160.34 85.0516 1159.34 87.2516 1158.94C89.8516 1158.34 91.6516 1157.34 92.3516 1155.84C93.8516 1152.84 92.9516 1148.64 90.8516 1148.64C89.9516 1148.64 88.6516 1148.14 88.1516 1147.64C87.4516 1146.94 85.5516 1147.14 82.1516 1148.04C79.4516 1148.84 75.4516 1149.74 73.2516 1150.14C65.7516 1151.24 56.4516 1155.44 55.3516 1158.14C54.1516 1161.34 54.7516 1162.44 57.9516 1163.04Z" fill="black"/>
<path d="M57.2517 1259.64C58.0517 1261.04 59.4517 1263.74 60.4517 1265.64C62.0517 1268.94 65.6517 1271.34 71.4517 1273.04C74.2517 1273.94 77.0517 1270.94 78.7517 1265.34C79.4517 1263.04 81.0517 1258.34 82.3517 1254.94C83.6517 1251.54 84.7517 1247.64 84.7517 1246.14C84.7517 1244.74 85.4517 1241.94 86.2517 1240.04C87.5517 1236.84 88.0517 1236.54 90.3517 1237.04C93.3517 1237.84 99.5517 1243.94 100.851 1247.44C102.151 1250.94 101.951 1257.74 100.351 1263.14C98.5517 1268.84 99.2517 1273.14 102.151 1275.14C105.351 1277.44 107.651 1274.44 108.851 1266.04C109.351 1262.24 110.051 1257.74 110.351 1256.14C112.251 1245.14 112.251 1244.14 110.251 1240.84C109.151 1238.94 105.951 1235.04 103.051 1232.04C98.2517 1227.04 97.3517 1226.54 91.7517 1225.84C88.4517 1225.34 85.4517 1225.34 85.1517 1225.84C84.8517 1226.24 84.2517 1226.44 83.7517 1226.14C81.8517 1224.94 75.6517 1236.74 74.3517 1244.04C73.6517 1247.94 72.2517 1253.14 71.1517 1255.54L69.1517 1260.04L66.9517 1256.34C64.5517 1252.24 64.0517 1248.64 65.2517 1244.34C66.0517 1241.34 65.9517 1241.24 62.3517 1242.54C60.8517 1243.24 59.1517 1245.24 57.8517 1248.24C55.3517 1253.74 55.2517 1256.24 57.2517 1259.64Z" fill="black"/>
<path d="M58.4516 1209.64C59.3516 1211.94 66.3516 1220.54 69.2516 1222.84C72.3516 1225.24 75.8515 1225.44 79.0515 1223.34C83.1515 1220.64 84.7516 1215.74 85.2516 1203.74C85.9516 1189.34 88.0516 1185.54 93.7516 1188.64C95.7516 1189.74 98.7516 1198.54 98.7516 1203.54C98.7516 1205.24 97.6516 1209.04 96.2516 1212.14C94.3516 1216.64 94.0516 1218.14 94.8516 1220.04C96.6516 1223.84 100.751 1222.14 103.551 1216.44C106.551 1210.54 108.951 1200.34 108.151 1196.84C106.551 1188.84 105.251 1184.94 103.851 1183.24C101.651 1180.64 95.8515 1177.14 92.4515 1176.24C89.0515 1175.44 83.0516 1178.34 80.2516 1182.24C79.1516 1183.74 77.7516 1185.44 77.2516 1186.04C75.7516 1187.74 75.5516 1189.24 75.2516 1200.54C74.9516 1211.14 74.2516 1213.14 71.4516 1212.04C69.5516 1211.34 68.3515 1208.14 68.5515 1204.44C68.7515 1202.04 66.6516 1198.64 64.9516 1198.64C63.8516 1198.64 58.7515 1203.64 58.7515 1204.64C58.7515 1205.04 58.5515 1206.04 58.3515 1206.84C58.0515 1207.54 58.1516 1208.84 58.4516 1209.64Z" fill="black"/>
</g>
<defs>
<clipPath id="clip0">
<rect width="1430" height="128" fill="white" transform="translate(0 1430) rotate(-90)"/>
</clipPath>
</defs>
</svg>
