<svg width="1430" height="128" viewBox="0 0 1430 128" fill="none" xmlns="http://www.w3.org/2000/svg">
<g clip-path="url(#clip0)">
<path d="M1413.36 -2.04865C1406.86 -0.748646 1394.06 2.95135 1392.76 3.95135C1392.26 4.35135 1389.96 4.95135 1387.86 5.15135C1383.66 5.65135 1381.36 7.85135 1381.36 11.1514C1381.36 13.9514 1382.46 15.3514 1384.86 16.1514C1386.96 16.7514 1387.56 16.6514 1401.36 11.9514C1409.26 9.25135 1412.86 8.85135 1412.16 10.8514C1411.96 11.2514 1407.06 16.6514 1401.16 22.6514C1390.46 33.6514 1388.56 36.6514 1389.76 41.1514C1390.86 45.6514 1404.16 50.6514 1416.06 51.2514C1423.96 51.6514 1424.36 51.5514 1427.26 48.8514C1428.96 47.2514 1430.36 45.0514 1430.36 44.0514C1430.36 40.4514 1428.46 39.8514 1419.96 40.4514C1411.36 41.0514 1403.36 39.5514 1403.36 37.4514C1403.36 35.3514 1406.66 31.2514 1412.86 25.7514C1420.56 18.8514 1425.06 13.4514 1427.56 8.15135C1430.06 2.65135 1429.66 0.651354 1425.36 -1.44865C1421.46 -3.34865 1419.86 -3.44865 1413.36 -2.04865Z" fill="black"/>
<path d="M1127.86 -1.34839C1127.56 -0.74839 1125.96 -0.24839 1124.26 -0.24839C1122.66 -0.24839 1121.36 0.15161 1121.36 0.65161C1121.36 1.15161 1119.66 2.25161 1117.56 3.05161C1113.56 4.65161 1102.36 15.0516 1102.36 17.1516C1102.36 17.8516 1101.06 20.1516 1099.56 22.3516C1098.06 24.4516 1095.76 28.7516 1094.46 31.7516C1093.16 34.7516 1091.76 37.9516 1091.36 38.7516C1090.96 39.5516 1090.86 42.9516 1091.06 46.1516C1091.96 60.6516 1108.16 77.7516 1121.06 77.7516C1125.76 77.7516 1135.96 75.2516 1138.06 73.5516C1138.96 72.8516 1140.16 73.2516 1142.16 74.9516C1143.76 76.3516 1146.56 77.9516 1148.26 78.7516C1151.06 79.8516 1151.66 79.7516 1153.46 78.1516C1154.66 77.1516 1156.26 74.9516 1157.06 73.4516C1158.86 69.8516 1157.36 67.6516 1153.06 68.0516C1151.46 68.1516 1149.96 67.7516 1149.76 67.2516C1149.56 66.6516 1151.26 63.3516 1153.66 59.7516C1160.96 48.5516 1163.06 37.5516 1160.26 24.5516C1156.96 9.25161 1150.76 2.65161 1136.86 -0.24839C1133.56 -0.94839 1130.36 -1.64839 1129.76 -1.94839C1129.06 -2.14839 1128.26 -1.94839 1127.86 -1.34839ZM1143.56 10.9516C1145.66 11.9516 1147.96 14.0516 1148.76 15.5516C1152.16 22.2516 1152.86 33.4516 1150.26 41.6516C1148.76 46.3516 1145.06 53.7516 1144.26 53.7516C1143.86 53.7516 1142.66 52.1516 1141.56 50.2516C1139.56 46.8516 1134.46 44.4516 1131.66 45.5516C1129.76 46.1516 1130.16 51.8516 1132.36 56.0516C1133.46 58.0516 1134.36 60.5516 1134.36 61.5516C1134.36 64.0516 1130.06 65.8516 1122.86 66.4516C1117.46 66.8516 1116.36 66.5516 1112.16 63.8516C1106.66 60.2516 1102.36 52.3516 1101.56 44.5516C1101.06 39.1516 1102.36 38.2516 1104.96 42.3516C1106.16 44.1516 1107.36 44.7516 1109.26 44.5516C1112.56 44.1516 1113.16 41.1516 1110.96 35.6516C1108.76 30.1516 1108.96 27.2516 1111.66 25.0516C1112.96 24.0516 1114.66 21.5516 1115.26 19.4516C1118.46 9.85161 1132.86 5.55161 1143.56 10.9516Z" fill="black"/>
<path d="M103.357 0.951487C101.457 1.45149 97.6575 2.45149 94.8575 3.15149C92.1575 3.85149 88.5575 4.95149 87.0575 5.55149C85.4575 6.25149 83.5575 6.75149 82.7575 6.75149C81.8575 6.75149 80.3575 7.25149 79.2575 7.85149C78.1575 8.35149 76.0575 9.05149 74.5575 9.25149C71.1575 9.85149 63.5575 11.7515 60.8575 12.7515C59.7575 13.1515 57.9575 13.5515 56.7575 13.5515C55.5575 13.5515 52.8575 14.3515 50.7575 15.3515C48.6575 16.2515 46.6575 17.1515 46.3575 17.1515C46.0575 17.2515 44.5575 17.7515 42.8574 18.3515C41.2574 19.0515 37.8574 20.0515 35.3574 20.7515C32.8574 21.4515 29.9574 22.3515 28.8574 22.7515C27.7574 23.1515 25.0575 24.0515 22.8575 24.6515C17.0575 26.4515 10.2575 29.9515 9.65745 31.5515C9.35745 32.2515 10.0575 33.9515 11.3575 35.2515C14.1575 38.2515 21.9575 38.4515 22.7575 35.5515C22.9575 34.5515 24.0575 33.7515 25.1575 33.7515C26.2575 33.7515 33.2574 31.7515 40.7574 29.2515C48.2575 26.8515 55.0575 25.0515 55.7575 25.3515C56.5575 25.6515 57.6575 27.9515 58.3575 30.5515C58.9575 33.1515 59.9575 35.7515 60.5575 36.4515C61.0575 37.1515 61.2575 38.5515 60.8575 39.7515C60.5575 40.8515 60.6575 41.7515 61.1575 41.7515C63.0575 41.7515 65.5575 59.5515 67.8575 90.3515C68.4575 98.5515 68.3575 99.6515 66.6575 100.851C64.6575 102.451 62.8575 104.951 61.3575 108.551C60.8575 109.851 59.9575 110.651 59.5575 110.351C59.0575 110.051 57.2575 111.151 55.4575 112.651C51.2575 116.251 43.1574 118.151 32.8574 117.851C25.8574 117.651 24.2575 117.251 19.5575 114.451C12.5575 110.251 11.1575 107.051 11.4575 95.7515C11.6575 82.7515 8.45745 77.0515 3.25745 81.0515C2.35745 81.7515 1.25745 84.6515 0.857451 87.7515C-0.142549 95.0515 -0.342549 107.751 0.657451 107.751C1.05745 107.751 1.35745 108.551 1.35745 109.451C1.35745 111.751 12.3575 121.851 17.6575 124.551C21.5575 126.551 37.0574 129.051 39.7574 128.251C40.3574 128.051 43.6574 127.651 47.1575 127.351C50.9575 126.951 55.7575 125.651 59.0575 124.051C65.2575 121.151 72.3575 115.351 72.3575 113.151C72.3575 112.351 74.0575 109.851 76.1575 107.651C79.7575 103.551 79.8575 103.251 79.8575 95.3515C79.9575 90.8515 79.6575 86.5515 79.1575 85.6515C78.7575 84.7515 77.9575 77.7515 77.4575 70.1515C76.3575 55.2515 75.0575 48.3515 70.8575 34.2515C69.3575 29.2515 68.0575 24.6515 67.9575 23.9515C67.8575 22.3515 86.7575 16.0515 101.457 12.7515C111.057 10.6515 111.157 10.5515 112.857 6.65149C115.757 0.351487 112.457 -1.64851 103.357 0.951487Z" fill="black"/>
<path d="M1258.16 1.45144C1256.86 2.95144 1256.76 3.85144 1257.76 6.75144C1258.66 9.75144 1259.36 10.2514 1262.36 10.5514C1267.46 10.8514 1268.86 9.55144 1268.46 4.55144C1268.36 2.75144 1263.66 -0.248559 1261.06 -0.248559C1260.26 -0.248559 1258.96 0.551441 1258.16 1.45144Z" fill="black"/>
<path d="M1313.16 9.35151C1311.66 10.1515 1308.76 13.0515 1306.56 15.7515C1302.36 20.9515 1301.36 21.1515 1301.36 16.5515C1301.36 12.5515 1297.26 10.6515 1294.36 13.2515C1291.86 15.5515 1290.46 20.4515 1291.46 23.7515C1293.06 29.4515 1295.36 42.7515 1295.96 50.0515C1296.36 55.8515 1297.06 58.4515 1298.46 59.8515C1301.06 62.4515 1303.16 62.2515 1303.96 59.3515C1304.26 58.0515 1305.46 56.6515 1306.56 56.4515C1308.16 55.9515 1308.46 55.3515 1307.96 53.5515C1305.36 44.6515 1306.66 34.6515 1311.26 27.9515C1312.26 26.4515 1313.86 24.0515 1314.76 22.4515C1316.56 19.5515 1318.76 18.9515 1320.06 21.0515C1321.36 23.1515 1325.66 24.5515 1329.16 24.0515C1331.86 23.5515 1332.36 23.1515 1332.36 20.7515C1332.36 18.6515 1331.06 16.8515 1326.96 13.3515C1320.96 8.25151 1317.26 7.15151 1313.16 9.35151Z" fill="black"/>
<path d="M1350.86 10.6515C1341.06 15.2515 1337.06 21.1515 1335.66 33.0515L1334.76 40.7515L1339.56 45.9515C1342.16 48.7515 1344.36 51.6515 1344.36 52.4515C1344.36 53.1515 1346.46 54.6515 1348.96 55.7515C1352.56 57.4515 1354.56 57.7515 1358.66 57.2515C1365.06 56.4515 1366.36 55.7515 1372.16 50.2515C1376.56 46.0515 1376.76 45.5515 1377.16 39.4515C1377.56 33.4515 1377.26 32.5515 1373.36 24.9515C1369.26 17.0515 1363.26 10.7515 1359.96 10.7515C1359.16 10.7515 1358.16 10.2515 1357.86 9.75153C1356.96 8.35153 1355.46 8.55153 1350.86 10.6515ZM1363.36 25.1515C1366.56 30.6515 1367.96 37.1515 1366.96 41.2515C1366.36 43.6515 1359.46 47.7515 1356.06 47.7515C1353.46 47.7515 1350.56 43.7515 1348.36 37.3515C1346.26 30.8515 1346.26 30.6515 1348.06 27.0515C1350.16 22.5515 1355.56 18.7515 1358.46 19.4515C1359.56 19.7515 1361.76 22.3515 1363.36 25.1515Z" fill="black"/>
<path d="M929.457 13.0515C927.557 15.3515 926.357 28.7515 926.757 42.4515C926.957 49.7515 926.757 55.7515 926.357 55.7515C925.957 55.7515 923.557 54.6515 920.957 53.2515C918.357 51.8515 915.457 50.7515 914.457 50.7515C913.457 50.7515 912.057 50.0515 911.357 49.2515C910.657 48.4515 909.657 48.0515 909.057 48.4515C908.357 48.8515 906.257 49.2515 904.157 49.3515C896.157 49.7515 887.757 60.6515 886.657 71.9515C885.957 80.1515 887.057 84.3515 891.257 88.6515C894.257 91.8515 895.957 92.6515 901.457 93.6515C909.557 95.2515 913.957 94.2515 922.757 88.8515C926.157 86.7515 930.457 84.6515 932.157 84.2515C933.957 83.9515 935.357 82.9515 935.357 82.1515C935.357 81.3515 936.057 80.7515 936.857 80.7515C937.657 80.7515 938.757 79.8515 939.357 78.8515C941.957 73.8515 942.957 73.6515 948.957 77.2515C952.057 79.1515 955.957 80.9515 957.657 81.3515C959.457 81.6515 961.457 82.4515 962.157 83.0515C962.857 83.6515 966.257 84.2515 969.757 84.4515C975.457 84.7515 976.257 84.5515 978.657 81.9515C981.057 79.4515 981.257 78.8515 980.057 76.4515C978.257 72.4515 975.357 71.3515 971.957 73.1515C970.357 73.9515 968.557 74.4515 967.957 74.2515C954.757 70.2515 951.357 68.2515 951.357 64.4515C951.357 62.9515 951.857 62.6515 953.457 63.0515C955.557 63.6515 962.557 59.7515 963.757 57.4515C964.157 56.7515 965.257 54.8515 966.357 53.2515C971.857 44.9515 972.657 39.4515 969.057 35.1515C967.157 32.9515 965.857 32.4515 962.257 32.4515C953.857 32.4515 943.457 39.2515 940.957 46.4515C939.657 50.0515 939.757 50.6515 941.057 52.0515C942.157 53.1515 942.357 54.5515 941.857 57.6515C941.157 62.0515 939.657 63.7515 938.357 61.7515C937.257 59.9515 936.557 21.4515 937.557 20.0515C938.057 19.4515 938.157 17.7515 937.757 16.3515C936.757 12.2515 931.757 10.3515 929.457 13.0515ZM959.257 46.9515C957.857 49.4515 955.657 50.2515 953.857 48.7515C952.057 47.2515 952.957 44.8515 955.757 43.7515C958.657 42.6515 960.657 44.3515 959.257 46.9515ZM918.057 62.4515C922.457 65.2515 926.757 71.6515 925.857 73.8515C925.557 74.6515 923.557 76.4515 921.357 78.0515C911.057 85.3515 897.357 85.5515 897.357 78.3515C897.357 77.1515 896.957 75.6515 896.457 74.8515C895.957 74.0515 896.157 72.4515 896.957 70.8515C897.757 69.4515 898.357 67.5515 898.357 66.6515C898.357 65.7515 900.057 63.8515 902.157 62.4515C907.257 58.9515 912.657 58.9515 918.057 62.4515Z" fill="black"/>
<path d="M1224.56 18.8514C1220.56 21.9514 1218.36 22.3514 1216.66 20.6514C1214.86 18.8514 1213.66 20.3514 1212.96 24.9514C1212.16 30.3514 1205.16 44.6514 1201.86 47.7514C1200.46 49.0514 1199.36 50.5514 1199.36 51.1514C1199.26 53.3514 1194.26 57.8514 1191.76 58.0514C1187.76 58.3514 1185.26 54.2514 1184.36 46.1514C1183.76 40.5514 1183.96 38.3514 1185.56 34.3514C1188.06 27.8514 1187.26 25.5514 1182.66 25.9514C1179.66 26.2514 1178.76 26.8514 1176.66 30.7514C1174.46 34.7514 1174.26 36.1514 1174.66 44.2514C1175.26 57.5514 1180.46 67.5514 1188.46 70.5514C1190.46 71.3514 1191.86 71.1514 1194.86 69.4514C1198.76 67.2514 1211.06 53.6514 1213.96 48.4514C1215.96 44.6514 1217.26 45.0514 1217.96 49.7514C1218.36 51.9514 1218.96 53.7514 1219.36 53.7514C1219.76 53.7514 1220.56 54.8514 1221.16 56.1514C1221.66 57.3514 1224.36 59.7514 1227.06 61.3514C1231.26 63.8514 1232.76 64.1514 1239.56 64.0514C1246.56 64.0514 1247.56 63.7514 1251.26 60.8514C1253.36 59.1514 1255.66 56.3514 1256.26 54.6514C1257.16 51.9514 1257.06 51.3514 1254.86 49.1514C1251.76 46.0514 1250.86 46.1514 1248.66 49.7514C1245.56 55.1514 1237.16 55.8514 1230.66 51.2514C1227.36 48.9514 1227.86 47.1514 1232.16 44.7514C1237.16 41.9514 1243.46 30.8514 1242.76 26.2514C1241.46 18.0514 1241.46 18.1514 1233.06 16.8514C1228.76 16.1514 1227.96 16.3514 1224.56 18.8514ZM1232.36 28.6514C1232.36 30.4514 1230.56 32.7514 1229.16 32.7514C1228.06 32.7514 1228.16 31.4514 1229.36 28.2514C1230.46 25.4514 1232.36 25.6514 1232.36 28.6514Z" fill="black"/>
<path d="M1256.86 20.7514C1256.16 21.9514 1257.16 30.5514 1258.86 37.7514C1259.66 40.7514 1260.46 45.4514 1260.76 48.0514C1261.96 57.9514 1266.26 61.5514 1270.96 56.4514L1273.26 53.9514L1270.76 43.5514C1266.86 27.5514 1266.16 25.4514 1263.46 22.4514C1260.96 19.7514 1257.96 18.9514 1256.86 20.7514Z" fill="black"/>
<path d="M747.857 39.1515C745.657 39.7515 742.457 41.0515 740.857 41.9515C736.957 44.0515 728.657 52.8515 727.357 56.2515C726.057 59.6515 726.057 67.4515 727.357 68.2515C730.757 70.3515 725.957 74.5515 719.257 75.3515C716.957 75.6515 713.457 76.5515 711.557 77.3515C706.057 79.6515 698.457 79.5515 696.757 77.2515C694.657 74.3515 695.057 71.8515 698.257 68.8515C702.357 65.0515 711.257 60.5515 713.457 61.2515C715.757 61.9515 719.357 60.1515 719.357 58.3515C719.357 55.3515 708.757 51.0515 705.457 52.7515C704.557 53.1515 702.557 54.1515 700.857 54.8515C699.257 55.5515 695.657 57.8515 692.957 59.9515C690.257 62.0515 687.557 63.7515 686.757 63.7515C686.057 63.7515 684.257 62.6515 682.657 61.3515C681.157 60.1515 678.157 58.2515 676.157 57.2515C670.257 54.5515 671.157 52.7515 678.957 51.2515C679.957 51.0515 681.157 50.8515 681.657 50.8515C683.357 50.6515 682.257 44.7515 680.157 42.7515C677.357 40.1515 672.057 40.9515 668.157 44.4515C666.757 45.8515 665.157 46.8515 664.657 46.7515C662.257 46.0515 660.057 58.2515 662.157 61.3515C662.557 61.9515 665.757 63.9515 669.357 65.6515C679.457 70.5515 681.957 75.0515 676.657 78.4515C675.057 79.4515 673.257 80.7515 672.557 81.4515C670.057 83.8515 665.557 82.9515 663.157 79.7515C661.757 77.7515 660.157 76.7515 658.857 76.9515C653.857 77.6515 659.057 89.2515 665.957 92.6515C670.657 94.9515 678.257 92.8515 683.157 87.8515L687.057 83.8515L690.657 86.3515C694.157 88.6515 702.757 91.0515 703.857 89.9515C704.157 89.6515 708.557 88.3515 713.557 87.0515C724.657 84.2515 726.857 83.2515 731.057 79.3515C734.357 76.3515 734.357 76.3515 737.757 78.0515C748.257 83.0515 760.457 80.2515 767.657 71.2515C773.057 64.4515 774.657 60.4515 773.757 55.4515C771.757 43.5515 759.557 35.8515 747.857 39.1515ZM758.757 47.7515C760.157 48.2515 761.957 50.0515 762.857 51.7515C764.957 55.8515 763.657 60.0515 758.357 65.6515C755.057 69.0515 753.757 69.7515 750.657 69.7515C747.957 69.7515 746.457 69.1515 745.557 67.7515C744.857 66.6515 743.357 65.7515 742.057 65.7515C739.457 65.7515 737.357 64.0515 737.357 61.9515C737.357 60.1515 744.357 50.7515 745.657 50.7515C746.157 50.7515 747.657 49.8515 749.057 48.7515C751.857 46.5515 754.857 46.2515 758.757 47.7515Z" fill="black"/>
<path d="M261.957 40.4515C261.657 40.8515 261.357 42.2515 261.357 43.7515C261.357 48.4515 267.157 51.5515 270.157 48.5515C271.757 46.9515 271.657 43.2515 269.957 41.8515C268.357 40.4515 262.857 39.5515 261.957 40.4515Z" fill="black"/>
<path d="M363.357 43.3515C359.857 45.2515 356.357 46.7515 355.657 46.7515C353.357 46.7515 354.257 51.6515 356.857 53.3515C359.657 55.1515 365.057 54.6515 368.957 52.1515C371.057 50.7515 371.357 50.7515 372.657 52.9515C373.457 54.2515 374.357 56.4515 374.757 57.9515L375.357 60.6515L369.557 60.4515C364.357 60.2515 363.157 60.6515 358.557 63.7515C347.357 71.2515 344.957 86.3515 353.857 92.1515C358.257 95.0515 368.157 95.3515 373.857 92.7515C376.357 91.6515 378.357 90.2515 378.357 89.7515C378.357 88.0515 381.957 88.6515 383.857 90.7515C384.857 91.8515 386.657 92.7515 387.857 92.7515C389.057 92.7515 390.257 93.0515 390.657 93.3515C390.957 93.7515 394.357 94.0515 398.057 94.2515C403.957 94.3515 405.557 94.0515 410.357 91.3515C416.457 88.0515 417.057 87.4515 419.657 83.4515C421.457 80.7515 421.457 80.4515 419.757 78.6515C417.757 76.4515 413.857 76.1515 412.657 78.0515C410.957 80.7515 406.157 82.7515 400.057 83.3515C390.457 84.1515 389.757 83.2515 387.857 67.3515C386.057 52.0515 383.657 45.6515 378.457 42.1515C373.757 38.9515 371.157 39.1515 363.357 43.3515ZM373.157 72.5515C375.957 74.7515 375.857 78.5515 372.857 80.1515C371.757 80.7515 370.557 81.6515 370.257 82.0515C369.057 83.6515 362.857 83.9515 360.957 82.4515C359.157 81.1515 359.157 80.7515 360.357 77.7515C361.657 74.5515 366.557 70.7515 369.357 70.7515C370.157 70.7515 371.957 71.6515 373.157 72.5515Z" fill="black"/>
<path d="M518.957 43.2514C516.157 44.6514 513.357 45.7514 512.657 45.7514C511.957 45.7514 511.357 46.1514 511.357 46.6514C511.357 47.1514 510.457 47.9514 509.357 48.2514C507.057 48.9514 502.357 53.3514 502.357 54.7514C502.357 55.3514 501.457 55.7514 500.357 55.7514C499.057 55.7514 498.357 56.4514 498.357 57.5514C498.357 58.6514 497.557 60.9514 496.657 62.8514C494.357 67.3514 493.757 77.8514 495.357 82.9514C496.557 86.2514 499.657 89.8514 506.057 94.7514C506.657 95.2514 509.757 96.5514 512.957 97.5514C518.157 99.2514 519.557 99.2514 526.457 98.1514C532.757 97.1514 535.157 96.2514 539.957 92.7514C543.257 90.4514 546.957 87.8514 548.357 87.0514C551.757 84.8514 557.357 76.3514 557.357 73.2514C557.357 71.4514 556.657 70.4514 554.657 69.6514C552.257 68.7514 551.557 69.0514 548.857 71.5514C535.557 84.4514 531.257 87.2514 522.657 88.2514C515.857 89.0514 512.657 87.8514 508.357 83.2514C505.957 80.6514 505.757 79.4514 506.257 68.5514C506.557 62.3514 521.257 51.3514 530.857 50.1514C536.557 49.3514 538.357 48.2514 538.357 45.6514C538.357 43.1514 535.257 41.6514 529.057 41.1514C524.957 40.8514 522.857 41.2514 518.957 43.2514Z" fill="black"/>
<path d="M596.358 43.7515C594.458 44.7515 589.758 48.5515 585.858 52.1515C578.958 58.6515 577.358 59.6515 577.358 57.7515C577.358 57.1515 575.958 55.8515 574.158 54.7515C571.858 53.3515 570.558 53.1515 569.158 53.8515C566.458 55.2515 567.058 65.1515 570.158 69.4515C573.558 74.2515 577.358 82.9515 577.358 85.9515C577.358 89.4515 582.358 95.3515 584.658 94.4515C585.458 94.1515 586.958 92.2515 587.958 90.1515C589.658 86.6515 589.658 86.1515 587.658 78.0515L585.658 69.6515L588.358 65.9515C589.858 63.9515 592.758 60.5515 594.658 58.4515C598.158 54.6515 598.258 54.6515 604.058 55.2515C609.358 55.8515 610.058 55.7515 612.058 53.5515C614.558 50.9515 614.458 50.6515 608.558 45.4515C603.858 41.3515 601.458 40.9515 596.358 43.7515Z" fill="black"/>
<path d="M646.657 47.4515C645.657 49.8515 645.057 53.3515 645.257 56.7515C645.557 64.4515 642.257 74.4515 637.957 79.1515C636.057 81.1515 633.857 82.7515 633.057 82.7515C629.057 82.7515 625.457 72.3515 625.957 62.1515C626.257 56.4515 626.057 55.9515 623.857 54.9515C620.357 53.3515 618.757 54.2515 616.857 59.4515C614.657 65.2515 615.257 74.4515 618.257 81.2515C620.957 87.4515 623.357 89.9515 628.457 92.2515C631.857 93.8515 632.957 93.8515 636.457 92.8515C647.957 89.4515 655.357 75.9515 656.657 56.0515C657.257 48.0515 657.157 47.7515 654.657 45.7515C650.757 42.6515 648.457 43.1515 646.657 47.4515Z" fill="black"/>
<path d="M320.357 48.1515C312.557 50.3515 301.357 57.5515 301.357 60.3515C301.357 61.1515 300.957 61.7515 300.357 61.7515C298.557 61.7515 296.257 68.5515 296.057 74.5515C295.957 80.5515 296.057 80.7515 300.957 86.4515C304.857 90.8515 307.357 92.7515 311.957 94.4515C321.157 98.0515 330.057 97.1515 335.157 92.1515C335.857 91.3515 336.957 90.7515 337.657 90.7515C339.457 90.7515 346.357 82.5515 346.357 80.4515C346.357 76.5515 338.357 73.8515 336.957 77.2515C336.657 78.0515 335.857 78.7515 335.157 78.7515C334.457 78.7515 333.257 79.6515 332.657 80.6515C331.057 83.1515 322.857 86.8515 320.057 86.3515C318.857 86.0515 317.557 85.8515 317.257 85.8515C316.957 85.7515 314.857 84.3515 312.757 82.6515C308.757 79.5515 306.457 75.7515 306.357 72.2515C306.357 70.0515 312.957 61.7515 314.657 61.7515C315.257 61.7515 317.257 60.5515 319.157 59.1515C323.557 55.7515 328.757 54.5515 333.657 55.8515C337.457 56.8515 340.357 55.8515 340.357 53.6515C340.357 52.6515 337.157 50.8515 334.557 50.4515C333.457 50.2515 331.957 49.6515 331.157 49.0515C328.957 47.1515 325.057 46.8515 320.357 48.1515Z" fill="black"/>
<path d="M113.557 57.7514C110.057 59.4514 106.457 60.7514 105.457 60.7514C103.657 60.7514 98.8575 65.3514 95.8575 70.2514C94.7575 71.8514 93.8575 75.2514 93.6575 77.7514C93.5575 80.2514 93.1575 85.2514 92.8575 88.8514C92.0575 96.4514 93.2575 99.7514 98.7575 105.251C100.557 107.051 102.357 109.151 102.657 110.051C103.157 111.351 108.057 112.951 115.757 114.251C119.357 114.751 128.857 112.151 132.557 109.651C133.957 108.551 135.457 107.751 135.757 107.751C136.057 107.751 138.657 105.951 141.657 103.751C145.357 100.951 147.357 98.6514 148.057 96.2514C149.357 92.0514 148.257 90.7514 142.757 90.2514C137.857 89.8514 134.357 91.4514 134.357 94.2514C134.357 96.5514 131.157 100.251 130.057 99.1514C129.757 98.8514 128.257 99.5514 126.657 100.651C120.357 105.351 108.957 103.651 105.957 97.6514C102.457 90.5514 104.357 88.7514 115.557 88.4514C122.757 88.2514 124.357 87.8514 127.757 85.5514C135.957 79.8514 138.557 70.1514 133.757 62.6514C132.457 60.4514 130.957 58.7514 130.457 58.7514C129.957 58.7514 128.857 58.1514 128.157 57.4514C125.257 54.5515 120.157 54.6515 113.557 57.7514ZM124.757 67.3514C126.657 72.2514 123.357 76.8514 116.857 78.6514C112.157 79.9514 106.357 80.0514 106.357 78.9514C106.357 77.5514 114.357 69.7514 115.757 69.7514C116.457 69.7514 117.857 68.8514 118.857 67.7514C121.057 65.3514 123.957 65.1514 124.757 67.3514Z" fill="black"/>
<path d="M266.957 57.9516C266.257 62.1516 267.057 70.6516 268.857 77.7516C269.657 80.7516 270.657 85.0516 271.057 87.2516C271.657 89.8516 272.657 91.6516 274.157 92.3516C277.157 93.8516 281.357 92.9516 281.357 90.8516C281.357 89.9516 281.857 88.6516 282.357 88.1516C283.057 87.4516 282.857 85.5516 281.957 82.1516C281.157 79.4516 280.257 75.4516 279.857 73.2516C278.757 65.7516 274.557 56.4516 271.857 55.3516C268.657 54.1516 267.557 54.7516 266.957 57.9516Z" fill="black"/>
<path d="M170.357 57.2514C168.957 58.0514 166.257 59.4514 164.357 60.4514C161.057 62.0514 158.657 65.6514 156.957 71.4514C156.057 74.2514 159.057 77.0514 164.657 78.7514C166.957 79.4514 171.657 81.0514 175.057 82.3514C178.457 83.6514 182.357 84.7514 183.857 84.7514C185.257 84.7514 188.057 85.4514 189.957 86.2514C193.157 87.5514 193.457 88.0514 192.957 90.3514C192.157 93.3514 186.057 99.5514 182.557 100.851C179.057 102.151 172.257 101.951 166.857 100.351C161.157 98.5514 156.857 99.2514 154.857 102.151C152.557 105.351 155.557 107.651 163.957 108.851C167.757 109.351 172.257 110.051 173.857 110.351C184.857 112.251 185.857 112.251 189.157 110.251C191.057 109.151 194.957 105.951 197.957 103.051C202.957 98.2514 203.457 97.3514 204.157 91.7514C204.657 88.4514 204.657 85.4514 204.157 85.1514C203.757 84.8514 203.557 84.2514 203.857 83.7514C205.057 81.8514 193.257 75.6514 185.957 74.3514C182.057 73.6514 176.857 72.2514 174.457 71.1514L169.957 69.1514L173.657 66.9514C177.757 64.5514 181.357 64.0514 185.657 65.2514C188.657 66.0514 188.757 65.9514 187.457 62.3514C186.757 60.8514 184.757 59.1514 181.757 57.8514C176.257 55.3514 173.757 55.2514 170.357 57.2514Z" fill="black"/>
<path d="M220.357 58.4514C218.057 59.3514 209.457 66.3514 207.157 69.2514C204.757 72.3514 204.557 75.8514 206.657 79.0514C209.357 83.1514 214.257 84.7514 226.257 85.2514C240.657 85.9514 244.457 88.0514 241.357 93.7514C240.257 95.7514 231.457 98.7514 226.457 98.7514C224.757 98.7514 220.957 97.6514 217.857 96.2514C213.357 94.3514 211.857 94.0514 209.957 94.8514C206.157 96.6514 207.857 100.751 213.557 103.551C219.457 106.551 229.657 108.951 233.157 108.151C241.157 106.551 245.057 105.251 246.757 103.851C249.357 101.651 252.857 95.8514 253.757 92.4514C254.557 89.0514 251.657 83.0514 247.757 80.2514C246.257 79.1514 244.557 77.7514 243.957 77.2514C242.257 75.7514 240.757 75.5514 229.457 75.2514C218.857 74.9514 216.857 74.2514 217.957 71.4514C218.657 69.5514 221.857 68.3514 225.557 68.5514C227.957 68.7514 231.357 66.6514 231.357 64.9514C231.357 63.8514 226.357 58.7514 225.357 58.7514C224.957 58.7514 223.957 58.5514 223.157 58.3514C222.457 58.0514 221.157 58.1514 220.357 58.4514Z" fill="black"/>
</g>
<defs>
<clipPath id="clip0">
<rect width="2444" height="1833" fill="white" transform="translate(-105 -284)"/>
</clipPath>
</defs>
</svg>
