<svg width="1166" height="1211" viewBox="0 0 1166 1211" fill="none" xmlns="http://www.w3.org/2000/svg">
<path fill-rule="evenodd" clip-rule="evenodd" d="M1105.99 761.356C1116.23 756.01 1126.24 750.2 1136.08 744.154C1143.01 740.007 1136.87 729.561 1129.76 733.336C1126.13 735.266 1122.51 737.216 1118.87 739.135C1121.73 736.671 1124.39 733.99 1126.76 731.066L1126.6 730.903C1135.76 722.693 1123.99 707.201 1113.57 713.945C1104.38 720.608 1095.1 727.405 1084.55 731.792C1062.7 741.059 1038.6 742.592 1015.14 742.859C1006.56 742.214 998.364 743.701 990.036 745.359C993.301 732.26 1001.47 722.369 1005.81 709.683C1009 696.875 990.516 688.151 983.964 700.462C982.356 703.485 980.823 706.544 979.324 709.617C965.162 722.498 941.514 721.364 927.231 735.194C919.095 742.415 915.113 752.213 913.541 762.046C912.473 768.723 914.133 775.417 910.096 781.331C890.577 808.939 859.735 852.577 844.072 882.96C832.982 810.762 803.371 721.462 772.78 655.446C762.664 634.333 751.091 613.703 735.899 595.806C737.621 589.838 731.543 579.244 727.678 582.506C715.781 567.972 694.751 564.21 677.841 556.985C655.014 547.224 636.075 526.935 626.765 503.876C614.803 459.963 585.356 454.386 544.517 456.326C505.433 456.277 476.516 472.994 467.988 512.78C450.663 542.978 409.757 537.984 380.328 545.978C358.76 550.905 337.829 558.523 317.937 568.193C295.808 547.203 216.553 635.297 209.349 657.969C213.59 658.791 217.805 659.781 221.982 660.986C225.702 662.062 224.14 667.681 220.388 666.782C215.719 665.66 211.02 664.888 206.299 664.352C206.155 664.804 206.029 665.252 205.935 665.696C205.405 665.66 204.876 665.615 204.346 665.579C205.521 666.191 206.652 666.901 207.754 667.816C210.418 670.028 206.95 674.297 204.119 672.535C201.452 670.539 197.959 670.854 194.76 670.184C194.57 676.763 171.097 669.403 167.451 667.223C151.246 665.196 134.575 667.371 119.447 659.556C99.3178 655.317 79.0378 650.63 59.1348 645.231C53.8658 647.285 48.9138 654.635 53.0988 660.029C55.4528 662.484 52.4268 666.491 49.4628 664.747C39.5218 658.895 31.8338 649.762 25.3158 639.922C22.2478 636.826 16.8018 637.492 12.6798 636.207C12.1288 637.198 11.8038 638.301 11.8088 639.433C-5.67621 642.311 6.79679 661.408 15.5868 667.358C10.9238 670.395 10.7468 676.34 11.1548 681.305C10.1668 683.074 9.83679 685.266 10.6968 687.248C13.9848 694.824 21.0958 701.205 26.5028 707.344C32.4728 714.123 37.7958 720.94 45.0598 726.436C72.7478 747.542 106.161 759.341 140.439 763.956C152.61 765.825 170.117 768.687 177.653 778.978C175.804 791.192 172.409 802.906 169.329 814.817C165.022 830.626 165.315 847.177 165.258 863.295C164.656 862.812 163.5 862.912 163.328 863.833C162.326 870.514 161.581 877.346 157.52 882.96C153.96 893.4 151.591 904.534 150.26 915.502C144.928 967.497 143.655 1021.03 155.677 1072.21C160.316 1091.2 167.861 1109.25 178.141 1125.86C181.206 1130.82 186.134 1132.27 190.559 1131.3C205.369 1138.99 224.026 1141.46 239.989 1139.5C294.41 1124.1 275.448 1161.2 351.751 1149.84C483.458 1133.06 616.562 1166.03 747.989 1146.67C751.226 1171.67 793.6 1164.5 808.319 1153.93C852.453 1121.12 874.367 1017.25 896.516 964.551C911.741 923.018 937.235 849.454 970.622 821.583C980.633 813.753 992.734 809.631 1004.84 806.304C1050.03 794.659 1095.39 783.648 1140.67 772.327C1148.34 770.436 1146.96 757.342 1138.75 758.182C1127.86 759.296 1116.92 760.306 1105.99 761.356Z" fill="white"/>
<path fill-rule="evenodd" clip-rule="evenodd" d="M100.045 753.568C96.9848 753.188 93.9848 752.098 91.0048 751.238C86.4548 749.908 81.9948 748.358 77.6048 746.588C68.5448 742.959 59.7548 738.668 51.5148 733.418C38.2048 724.928 26.4448 714.048 17.5748 700.948L16.9658 700.035C11.902 692.321 2.5612 675.194 13.0348 669.338C6.2845 663.698 -0.0955007 653.568 0.264499 645.748C0.774499 634.688 14.3345 634.839 21.3445 639.528C25.9345 642.598 29.3745 646.898 32.8245 651.129C36.6445 655.828 40.7245 660.308 44.9645 664.618C46.0895 665.758 47.2257 666.876 48.3817 667.975L49.5444 669.068C49.3645 668.638 49.2045 668.198 49.0645 667.747C46.7245 660.458 49.5145 650.968 56.8045 647.628C61.2657 645.583 65.8989 646.832 70.2219 648.568L70.8845 648.838C76.7045 651.247 82.5945 653.378 88.6545 655.088C113.354 662.058 139.135 663.218 164.445 666.698C174.195 668.048 184.124 669.747 193.824 672.247C197.524 656.538 206.594 641.479 216.434 629.089C263.554 569.818 341.264 550.229 412.354 537.549C418.834 536.399 424.205 544.978 427.975 542.948C435.125 539.108 441.415 533.668 446.935 527.758C458.705 515.148 467.055 500.318 476.865 486.268C481.715 479.328 492.875 485.538 488.375 492.988L486.17 496.629C477.093 511.543 467.042 526.912 454.025 538.478C447.105 544.618 439.425 549.468 430.645 552.497C423.995 554.788 414.665 556.718 407.385 554.497L406.511 553.225C406.8 553.65 407.091 554.075 407.385 554.498C426.384 582.028 450.224 605.328 475.344 627.318C500.7 649.502 528.053 669.367 555.571 688.79L557.864 690.408C602.694 657.709 640.564 615.058 667.134 566.329C661.565 565.658 656.055 562.089 651.295 559.428C645.565 556.209 640.175 552.368 635.975 547.248C626.825 536.098 628.015 521.728 626.365 508.198C626.265 507.358 627.375 507.148 627.885 507.568C632.845 511.688 634.585 518.438 636.655 524.268C638.935 530.678 641.515 535.959 646.745 540.468C651.615 544.669 657.555 547.758 663.325 550.508C666.3 551.919 681.072 555.545 682.754 558.549C708.275 552.558 733.135 562.908 752.045 580.368C770.315 597.238 783.725 619.168 795.565 640.818C808.195 663.918 818.545 687.997 827.465 712.747C836.505 737.868 843.435 763.538 847.245 789.978C850.461 812.27 852.433 834.911 853.709 857.451L853.865 860.268C872.744 830.638 892.094 801.318 911.844 772.258C907.354 760.268 912.324 748.028 920.734 738.768C930.054 728.518 942.944 723.758 955.274 718.218L956.895 717.485C962.838 714.774 968.761 711.789 973.894 707.728C978.834 703.808 982.464 698.408 987.664 694.798C995.224 689.538 1008.94 690.658 1009.29 702.148C1009.47 708.459 1006.76 715.378 1004.28 721.048C1001.47 727.459 997.684 733.268 993.184 738.608C992.976 738.857 992.749 739.053 992.518 739.209L992.344 739.318C998.564 740.348 1004.83 741.178 1011.22 741.468C1024.11 742.058 1037.14 741.108 1049.76 738.388C1062.68 735.608 1075.2 731.089 1086.82 724.788C1096.75 719.408 1105.95 712.448 1117.23 710.808C1118.27 710.648 1119.32 710.548 1120.4 710.488C1122.2 710.388 1124 712.508 1123.29 714.287C1122.9 715.268 1122.49 716.238 1122.04 717.218C1118.14 725.808 1112.16 734.141 1104.7 740.466L1104.12 740.948C1106.75 740.038 1109.34 739.018 1111.89 737.868C1126.88 731.118 1140.48 720.918 1156.55 716.818C1157.31 716.618 1158.08 716.438 1158.85 716.268C1163.82 715.198 1166.44 720.598 1163.52 724.298C1163.05 724.898 1162.58 725.488 1162.09 726.078C1154.92 734.978 1147.01 743.238 1138.29 750.658C1135.3 753.198 1132.22 755.658 1129.08 758.009C1127.76 759.005 1126.43 759.98 1125.09 760.938L1124.42 761.408C1125.99 760.299 1127.54 759.169 1129.08 758.009C1138.92 755.028 1148.62 751.498 1158.11 747.589C1161.88 746.038 1164.81 749.858 1165.21 752.998C1166.55 763.519 1154.87 771.129 1147.27 776.188C1139.65 781.269 1131.26 785.129 1122.67 788.228C1106.16 794.197 1088.81 796.907 1071.49 799.336L1063.08 800.508C1029.78 805.164 995.006 810.73 971.114 836.639C957.724 851.158 948.664 869.198 940.374 886.948C932.094 904.679 924.824 922.879 917.924 941.179C910.774 960.118 904.544 979.408 897.924 998.538C891.844 1016.1 884.582 1033.44 877.389 1050.61L876.254 1053.32C860.984 1089.8 842.744 1124.16 817.324 1154.62C813.134 1159.65 806.364 1152.51 810.234 1147.53C836.824 1113.25 855.324 1072.8 870.594 1032.45C877.544 1014.09 883.364 995.288 890.044 976.828L894.019 965.862C899.327 951.243 904.68 936.643 910.264 922.139C917.334 903.788 925.104 885.658 933.994 868.118L934.938 866.271C943.641 849.35 953.982 832.673 968.214 819.868C993.832 796.809 1027.92 791.277 1060.88 786.896L1071.25 785.529C1085.18 783.678 1099.15 781.634 1112.7 777.908C1120.52 775.769 1128.16 773.028 1135.34 769.248C1138.2 767.748 1140.99 766.099 1143.69 764.299C1135.99 766.559 1128.18 768.408 1120.23 769.858C1116.34 770.568 1112.49 771.099 1108.65 771.469C1098.76 772.448 1088.95 772.408 1078.82 771.879C1077.96 771.828 1077.68 770.479 1078.6 770.309C1085.66 769.054 1092.72 767.485 1099.76 765.783L1101.86 765.268C1101.9 764.099 1102.36 762.858 1103.32 761.679C1106.82 757.419 1113.47 755.238 1118.08 752.228C1122.91 749.078 1127.59 745.679 1132.05 742.038C1136.13 738.709 1140.05 735.188 1143.82 731.509L1144.95 730.398C1144.58 730.77 1144.2 731.14 1143.82 731.508C1133.64 736.209 1123.99 742.238 1113.36 745.959C1104.91 748.928 1096.05 750.928 1087.11 751.638L1086.56 751.682L1086 751.718C1076.67 752.388 1067.28 752.118 1058.09 754.138C1057.06 754.368 1056.74 752.988 1057.66 752.598C1065.69 749.258 1074.04 747.968 1082.48 746.408C1082.66 745.748 1083.12 745.158 1083.92 744.778L1086.08 743.747C1092.51 740.659 1098.51 737.541 1103.85 732.528C1108.57 728.098 1112.5 722.919 1115.45 717.178C1103.64 719.768 1093.27 728.718 1082.53 733.748C1070.83 739.238 1058.45 743.178 1045.73 745.419L1044.29 745.667C1020.51 749.633 991.93 749.127 970.634 736.768C969.954 736.368 970.444 735.459 971.144 735.568C977.184 736.558 983.165 737.728 989.144 738.768C987.974 737.698 987.454 735.778 988.804 734.238C994.175 728.083 998.423 721.048 1001.14 713.35L1001.66 711.845C1002.91 708.274 1005.02 702.729 1002.86 699.508C1000.8 696.438 995.954 696.858 993.054 698.158C987.024 700.878 983.014 707.669 977.934 711.768C972.394 716.248 966.094 719.568 959.644 722.538L958.282 723.157C947.126 728.175 935.206 732.4 926.434 741.258C921.714 746.018 917.654 751.968 916.294 758.638C915.674 761.698 915.674 764.848 916.494 767.878C917.144 770.248 918.504 771.709 917.724 774.118C916.704 777.228 913.094 780.948 911.234 783.718C909.074 786.919 906.924 790.128 904.774 793.338C900.484 799.758 896.214 806.198 891.944 812.628C883.404 825.508 874.954 838.448 866.574 851.428C863.848 855.655 861.13 859.886 858.421 864.122L854.365 870.478L852.221 873.83L848.565 879.577C848.695 880.108 848.685 880.668 848.515 881.158C847.891 882.933 846.724 884.147 845.273 885.027L845.014 885.178C823.674 918.908 802.674 952.858 781.464 986.669C780.334 996.988 779.274 1007.32 778.354 1017.65C776.264 1041.03 774.834 1064.47 774.374 1087.94C774.154 1099.3 775.064 1110.73 775.554 1122.08C775.794 1127.49 776.123 1132.91 776.551 1138.31L776.867 1142.15C777.29 1147.42 777.529 1152.65 775.634 1157.67C773.954 1162.08 768.834 1163.07 765.804 1159.71C726.274 1158.12 686.714 1156.91 647.154 1156.16C576.344 1154.8 505.505 1155.01 434.684 1156.38C399.114 1157.07 363.535 1158.04 327.975 1159.24C310.455 1159.82 292.924 1160.64 275.394 1160.88C265.95 1161.01 251.085 1157.57 250.323 1146.94L250.305 1146.62C249.125 1146.94 247.904 1147.2 246.654 1147.39C246.098 1147.47 245.564 1147.45 245.07 1147.33L244.824 1147.27C230.746 1151.56 212.937 1145.44 199.559 1141.87L198.455 1141.58C185.685 1138.25 175.425 1133.49 167.055 1122.91C152.405 1104.38 147.405 1079.5 144.805 1056.57C142.365 1034.99 142.225 1013.01 145.195 991.469C143.445 973.919 145.155 955.809 147.145 938.358C148.125 929.728 149.275 921.108 150.655 912.528C151.425 907.738 152.435 902.998 153.465 898.268C153.876 896.378 154.218 894.343 154.74 892.376L154.975 891.538C153.374 891.748 151.624 891.398 149.934 890.469C145.914 888.259 144.745 883.788 144.674 879.509C144.454 866.608 145.994 853.339 147.354 840.519C148.724 827.719 150.604 814.868 153.064 802.228L153.701 798.969C155.565 789.514 157.698 779.753 161.454 770.868C147.345 768.469 133.275 765.919 119.585 761.578C112.905 759.448 106.325 756.799 100.045 753.568ZM836.504 887.818C836.285 887.868 836.074 887.928 835.865 887.988C830.225 889.568 824.524 890.908 818.844 892.348C809.024 894.818 799.425 897.578 790.295 901.868C788.382 926.009 785.547 950.07 782.851 974.144L782.314 978.959C786.454 971.278 790.694 963.658 795.124 956.129C808.614 933.178 822.414 910.408 836.504 887.818ZM158.415 890.209C158.445 893.078 157.845 896.059 157.525 898.818C157.005 903.299 156.585 907.799 156.055 912.278C154.975 921.278 154.055 930.288 153.385 939.328C152.955 945.099 152.675 950.889 152.425 956.679C158.095 935.488 165.605 914.759 172.745 893.998C171.551 893.872 170.331 893.581 169.073 893.246L166.954 892.676C165.705 892.354 161.652 891.357 158.415 890.209ZM854.365 870.478L854.405 871.428C854.555 874.798 852.535 876.698 850.085 877.188C851.505 874.948 852.935 872.708 854.365 870.478ZM205.564 710.759C211.535 711.288 217.385 712.559 222.964 714.759L223.503 714.969C227.63 716.562 233.665 718.564 235.014 722.969C235.395 724.219 234.374 725.248 233.204 725.349C228.725 725.709 223.445 720.908 219.294 719.288C214.674 717.488 209.835 716.148 204.934 715.438C193.924 713.828 182.445 715.049 172.085 719.059C171.475 719.299 171.094 718.328 171.645 718.038C182.085 712.358 193.695 709.709 205.564 710.759ZM79.0548 739.358C78.3644 738.748 77.6744 738.108 76.9944 737.469C71.633 732.397 66.8852 726.478 63.3699 719.973L62.4447 718.213C59.5816 712.669 56.0657 704.772 62.7944 700.778C66.8144 698.389 71.6544 698.988 76.1344 700.438C76.4244 700.528 76.7144 700.629 77.0044 700.728C79.0044 701.429 80.9344 702.268 82.6544 703.068C90.1244 706.498 96.7144 711.488 103.614 715.889C111.091 720.659 118.473 723.709 127.102 725.494L127.914 725.658C136.014 727.259 144.794 728.288 150.444 734.948C151.864 736.629 150.564 739.778 148.114 738.948C132.494 733.679 115.964 732.518 101.624 723.868C95.6844 720.288 90.0644 716.179 83.9944 712.788C80.7744 710.987 77.4499 709.412 73.907 708.332L71.9715 707.761C70.8378 707.43 69.4844 707.103 68.5744 707.429C66.8421 708.029 67.395 708.956 67.9309 710.574L67.9844 710.738C72.1944 723.759 84.1944 734.658 95.3144 741.868C97.8644 743.528 100.474 745.049 103.134 746.459C121.14 756.056 141.287 760.523 161.074 765.825C161.074 765.825 172.515 769.019 176.305 770.219C180.525 769.868 185.335 771.359 188.515 773.139C191.605 774.868 194.095 777.189 195.975 779.919C195.975 779.919 197.785 781.429 198.115 783.769C199.065 785.939 199.705 788.278 200.025 790.719C200.205 792.149 199.845 793.248 199.165 794.028C201.21 825.42 192.731 856.636 183.171 886.471L182.223 889.413L181.615 891.278C171.305 922.908 159.475 954.309 154.195 987.288C150.665 1009.32 150.775 1032.12 153.365 1054.25L153.547 1055.77C156.099 1076.7 161.009 1100.17 174.315 1117.01C181.101 1125.6 189.142 1129.42 199.422 1132.19L199.985 1132.34C209.285 1134.79 218.885 1138.26 228.475 1139.31C237.375 1140.28 244.835 1136.97 252.845 1133.87L252.854 1133.86C269.725 1118.93 277.385 1097.19 283.045 1075.25C297.715 1018.47 295.895 959.528 287.575 901.918C283.235 871.818 277.335 841.978 271.455 812.149C268.515 797.238 265.345 782.358 262.715 767.399L261.153 758.594C260.291 753.703 259.457 748.807 258.745 743.888C257.785 737.279 257.495 730.778 257.165 724.128C249.085 710.738 237.355 699.708 223.765 691.798C214.035 686.128 203.735 682.198 193.105 679.348C162.715 671.158 129.585 671.738 99.0045 665.438C88.7315 663.324 78.9799 660.186 69.2336 656.425L67.9045 655.908C63.4345 654.168 58.8745 653.198 56.6545 658.468C55.0745 662.218 56.0145 666.118 58.3845 669.268C64.1945 676.988 75.8745 680.568 84.6645 683.348C89.9545 685.028 95.3545 686.358 100.814 687.348C106.274 688.338 111.754 688.588 116.994 690.518C119.014 691.258 119.414 694.468 116.994 695.037C110.354 696.588 103.674 695.258 97.0745 693.968C89.8245 692.537 82.6845 690.508 75.7445 687.938C74.4645 687.466 73.1397 686.969 71.7906 686.44L70.7745 686.038C71.8245 686.799 72.8745 687.549 73.9345 688.299C74.2145 688.498 74.0445 689.028 73.6745 688.898C57.3565 682.81 42.509 671.826 31.0068 658.83L30.4345 658.179C26.3845 653.538 17.1545 639.498 9.3745 643.408C2.0689 647.075 14.5224 661.212 19.2551 666.991L19.8047 667.669C25.1847 667.809 30.3947 671.158 34.7547 673.858C42.3247 678.549 50.2347 682.589 58.2947 686.368C74.3147 693.898 91.3247 699.209 107.175 707.118C107.385 707.229 107.225 707.498 107.025 707.469C96.9347 705.858 86.9547 703.288 77.2047 700.099L76.7697 699.962L76.3347 699.818C70.2447 697.818 64.2347 695.559 58.3247 693.148C51.7547 690.469 45.3347 687.459 39.1047 684.049C33.4647 680.969 27.2047 675.419 20.6647 674.599C19.9647 674.509 19.3447 674.498 18.8047 674.549C11.2948 675.178 17.5048 687.618 19.6048 691.338C23.0348 697.448 27.1748 703.088 31.9248 708.238C41.5548 718.698 53.2248 726.988 65.8548 733.438C70.1648 735.638 74.5748 737.578 79.0548 739.358Z" fill="black"/>
<path fill-rule="evenodd" clip-rule="evenodd" d="M721.142 209.138C722.232 199.013 710.379 172.001 710.665 177.48C691.663 148.181 654.58 136.659 622.585 126.987C554.664 104.565 501.626 131.644 453.904 179.637C425.73 205.954 398.922 235.351 384.779 271.782C356.956 341.28 398.661 420.526 462.084 453.726C467.202 456.496 472.779 459.126 477.653 462.472C503.871 477.619 534.658 482.859 563.873 489.452C618.529 501.945 687.172 495.991 719.382 443.955C741.229 407.025 735.425 362.256 733.715 321.272C731.146 285.363 726.637 244.784 721.142 209.138Z" fill="white"/>
<path fill-rule="evenodd" clip-rule="evenodd" d="M428.995 106.654C464.405 73.5517 516.742 57.5077 564.594 60.3137C590.511 61.8337 615.489 68.3277 638.911 79.4847C646.236 82.9737 653.374 87.0577 659.956 91.8667C664.396 93.9387 668.737 96.1807 672.942 98.6187C694.002 110.819 710.282 129.298 720.702 151.218C725.676 161.68 729.601 172.713 731.824 184.08L732.182 185.951C733.316 191.655 735.558 199.171 732.722 204.509C730.842 208.048 726.902 210.279 723.172 209.979C723.982 213.259 724.952 216.538 725.572 219.839L727.261 228.839C727.541 230.339 727.818 231.839 728.092 233.339C729.722 242.279 731.222 251.208 732.422 260.218C734.932 278.979 737.202 297.779 739.202 316.609C740.635 330.075 741.978 343.556 743.283 357.033L744.062 365.119C745.402 379.038 746.452 393.079 745.541 407.059C744.17 428.03 737.72 447.163 725.201 462.728C726.394 465.597 726.796 468.827 727.694 472.394C728.937 477.33 730.556 482.163 732.279 486.954C733.085 488.837 733.893 490.721 734.692 492.609L736.793 497.61L738.432 500.889C740.208 504.456 741.926 508.075 743.018 511.767C750.092 515.544 755.869 521.706 756.152 530.149C756.402 537.779 752.442 545.859 745.752 549.748C739.151 553.591 732.355 552.078 726.034 549.144C720.523 550.748 714.624 550.951 709.165 549.238C704.962 553.042 699.541 555.669 693.532 556.378C684.472 557.454 675.871 554.918 667.561 551.583L666.982 551.349C666.722 551.248 666.462 551.138 666.212 551.029C656.652 550.569 647.132 546.788 640.351 540.089C638.142 537.919 636.232 535.439 634.692 532.659C629.101 522.548 628.232 510.138 633.732 500.109C632.552 500.159 631.362 500.208 630.182 500.239C614.447 500.687 598.685 499.884 582.99 498.85L579.29 498.599C569.134 497.868 554.157 496.146 553.872 483.559C553.831 481.949 555.492 480.739 557.012 481.169C562.782 482.798 568.452 485.359 574.432 486.279C582.252 487.489 590.351 487.619 598.252 488.059L600.524 488.185C616.455 489.057 632.958 489.588 648.632 486.429C660.331 484.079 672.522 479.798 683.242 474.498C693.532 469.399 702.882 462.729 710.422 454.019C727.032 434.859 729.232 407.829 728.422 383.589C727.442 354.638 724.041 325.729 722.122 296.819L721.253 283.831C720.537 273 719.883 262.154 719.612 251.319C719.412 243.409 719.541 235.479 719.581 227.569C719.601 223.619 719.552 219.649 719.642 215.699C719.692 213.479 719.952 211.309 720.142 209.138C719.262 208.679 718.442 208.038 717.702 207.189C717.122 206.519 716.672 205.809 716.362 205.089C712.632 203.998 710.902 202.548 708.482 199.259C706.442 196.489 704.132 193.929 701.662 191.529C696.402 186.429 690.392 182.259 684.041 178.628C670.912 171.119 656.532 166.099 642.032 161.979C619.831 155.679 596.772 152.439 574.242 147.378C568.032 156.038 561.452 164.439 554.572 172.569C533.101 197.929 508.482 220.538 482.101 240.699C476.732 244.809 471.291 248.859 465.772 252.788C458.5 263.874 451.153 274.907 443.695 285.867L440.492 290.559L440.442 290.649C440.002 291.319 439.581 291.989 439.162 292.659C438.272 294.079 437.272 295.449 436.212 296.779C435.522 297.788 434.822 298.798 434.112 299.809C435.472 300.538 436.712 301.359 437.682 302.269C439.662 304.138 439.331 307.109 437.682 309.009C432.362 315.149 423.942 307.149 417.822 305.019C411.192 307.038 405.662 314.929 402.912 320.958C398.952 329.649 397.362 340.128 399.152 349.538C400.791 358.138 405.212 365.569 412.562 370.229C412.822 370.388 413.101 370.559 413.372 370.708C413.382 370.729 413.382 370.729 413.392 370.718C413.642 370.878 413.902 371.029 414.162 371.169C417.612 373.069 421.402 374.189 425.331 374.458C427.581 374.619 429.932 374.498 432.182 374.769C434.492 375.038 436.392 376.099 438.612 376.659C441.062 377.288 442.642 380.579 441.101 382.788C440.342 383.878 439.622 384.919 438.851 385.849C441.382 388.829 443.581 392.119 445.572 395.248C448.291 399.538 450.702 404.089 452.902 408.729C454.932 411.399 456.872 414.119 458.752 416.899C469.402 432.679 477.552 450.259 482.562 468.628C487.522 486.798 490.622 507.208 486.032 525.759C481.802 542.819 469.452 556.949 451.172 557.859C447.357 558.047 443.605 557.621 440.077 556.652C432.327 561.439 422.723 563.847 414.128 564.128C407.174 564.356 399.562 562.892 393.883 558.687C387.146 561.619 379.838 563.283 373.483 563.662C366.372 564.086 358.93 562.148 353.133 558.31C347.617 563.035 341.665 567.023 334.902 569.759C323.272 574.458 309.432 573.878 298.782 566.849C288.112 559.809 282.682 547.169 285.942 534.628C288.942 523.069 298.372 514.589 307.232 507.288L308.982 505.853C317.746 498.7 326.597 491.777 332.222 481.699C338.192 471.009 340.372 458.589 340.962 446.489C342.242 419.849 336.822 393.449 335.172 366.949C333.472 339.579 334.422 312.128 338.152 284.958C345.402 232.179 364.482 180.439 399.002 139.298C403.996 133.345 409.342 127.671 414.976 122.293C419.282 116.661 423.936 111.382 428.995 106.654ZM888.171 408.009C888.361 408.019 888.541 408.029 888.711 408.099C888.825 408.147 888.921 408.223 889.01 408.307L889.851 409.149C890.151 409.449 890.131 409.909 889.851 410.209C889.606 410.481 889.162 410.49 888.873 410.278L888.791 410.209L887.92 409.337C887.825 409.234 887.743 409.122 887.701 408.979C887.661 408.839 887.661 408.679 887.651 408.529C887.641 408.259 887.901 408.009 888.171 408.009ZM418.991 326.309C427.011 323.878 436.631 329.659 441.411 335.759C443.811 338.819 444.491 343.009 441.411 346.019C438.791 348.579 433.671 349.048 431.141 346.019C428.271 342.569 425.931 337.788 421.831 335.579C417.381 333.179 411.421 333.779 410.371 339.628C410.191 340.619 408.771 340.288 408.711 339.399C408.321 333.479 413.511 327.958 418.991 326.309Z" fill="black"/>
<path fill-rule="evenodd" clip-rule="evenodd" d="M659.648 393.743C651.262 389.289 641.421 390.043 633 394.021C622.706 398.884 614.747 406.869 607.697 415.65C604.991 419.021 602.458 422.536 599.928 426.048C598.887 427.494 597.846 428.938 596.794 430.372C596.589 430.641 596.364 430.93 596.125 431.237C594.44 433.402 592.14 436.397 591.259 439.115C590.906 440.206 590.774 441.259 590.933 442.219C591.01 442.683 591.152 443.128 591.37 443.549C590.026 443.896 589.129 443.565 588.509 442.898C587.527 441.841 587.182 440.254 587.168 438.432C587.118 431.906 591.421 422.392 593.178 418.472C593.359 418.068 593.514 417.722 593.637 417.442C599.991 402.903 610.157 388.74 624.288 380.903C637.98 373.31 654.186 371.875 668.351 379.053C684 386.984 688.27 402.687 690.043 418.826C690.315 421.299 689.196 423.579 687.476 425.299C685.534 427.241 682.806 428.498 680.256 428.498C677.609 428.498 675.184 427.377 673.412 425.604C671.624 423.817 670.495 421.364 670.475 418.706L670.458 417.158C670.376 411.769 669.998 406.709 668.042 402.419C666.47 398.969 663.895 395.999 659.648 393.743ZM638.814 321.367C646.366 325.957 657.872 336.66 649.748 348.04C640.186 358.073 626.419 346.569 619.634 341.366C613.343 337.334 606.275 347.705 612.112 352.413C661.136 388.708 681.031 322.567 642.634 315.97C638.406 315.243 636.836 319.947 638.814 321.367ZM575.25 322.874C573.216 323.87 570.96 324.274 568.748 323.812C566.767 323.399 564.831 322.289 563.117 320.333C560.763 317.644 559.054 313.826 560.196 310.183L560.523 309.246C560.909 308.156 561.43 307.134 562.064 306.208C562.471 304.223 562.553 302.924 562.63 301.689C562.65 301.374 562.669 301.063 562.691 300.753C562.813 299.024 563.066 297.215 563.647 295.551C563.756 295.237 563.877 294.927 564.009 294.62C563.684 294.507 563.359 294.393 563.035 294.278C560.792 293.488 558.556 292.684 556.332 291.844C550.007 289.453 543.753 286.757 537.699 283.741C534.708 282.251 531.793 280.574 528.914 278.877C527.539 277.963 524.524 275.834 523.171 274.688L522.145 273.818L521.608 275.052C521.031 275.633 520.565 275.679 520.173 275.548C519.752 275.408 519.44 275.076 519.244 274.677C519.008 274.197 518.935 273.613 519.059 273.049C519.171 272.542 519.448 272.051 519.917 271.665C521.7 270.194 524.216 270.833 526.306 271.243C526.605 271.301 526.897 271.358 527.181 271.41C530.431 272.004 533.674 272.711 536.904 273.442L540.792 274.327C542.275 274.666 543.759 275.006 545.241 275.346C562.088 279.206 578.906 283.058 596.122 284.75L597.936 284.92C601.005 285.194 603.736 286.497 605.535 288.573C607.192 290.484 608.039 293.048 607.636 296.021C607.243 298.931 605.606 301.354 603.353 302.854C601.112 304.347 598.26 304.927 595.414 304.163C590.07 302.729 584.738 301.221 579.431 299.622L580.673 302.571C581.74 305.14 582.725 307.802 582.841 310.52C582.95 313.073 582.201 315.545 580.904 317.659C579.524 319.91 577.523 321.761 575.25 322.874ZM695.352 261.429C694.034 263.228 692.519 264.765 691.01 266.305C687.75 269.63 684.491 272.956 681 276.049C679.735 277.171 678.455 278.277 677.176 279.383C676.701 279.793 676.226 280.203 675.752 280.615L675.005 281.262L675.644 282.017C675.815 282.219 675.977 282.428 676.112 282.65C678.03 285.789 679.095 289.197 680.173 292.614C680.912 294.956 681.654 297.303 682.651 299.583L682.972 300.297C684.269 303.087 684.618 306 683.929 308.628C683.28 311.104 681.705 313.314 679.179 314.923C678.544 315.328 677.46 315.798 676.726 315.961C673.831 316.603 670.9 316.155 668.504 314.795C666.214 313.495 664.418 311.358 663.622 308.555C662.446 304.414 661.691 300.207 661.731 296.107C661.737 295.413 661.767 294.716 661.818 294.017C661.36 294.481 660.835 294.89 660.239 295.227C658.384 296.275 656.287 296.378 654.316 295.843C652.085 295.237 650.008 293.82 648.569 291.968C647.302 290.337 646.527 288.361 646.627 286.296C646.714 284.493 647.475 282.637 649.102 280.888L650.637 279.324C651.779 278.166 653.351 277.274 655.027 276.824C656.564 276.41 658.194 276.366 659.656 276.865C661.628 276.325 662.906 275.689 664.093 275.098C664.939 274.677 665.736 274.279 666.447 273.969C669.91 272.463 673.359 270.928 676.798 269.366C679.779 268.01 682.807 266.758 685.836 265.506C689.026 264.187 692.216 262.868 695.352 261.429Z" fill="black"/>
<path fill-rule="evenodd" clip-rule="evenodd" d="M659.648 393.743C651.262 389.289 641.421 390.043 633 394.021C622.706 398.884 614.747 406.869 607.697 415.65C604.991 419.021 602.458 422.536 599.928 426.048C598.887 427.494 597.846 428.938 596.794 430.372C596.589 430.641 596.364 430.93 596.125 431.237C594.44 433.402 592.14 436.397 591.259 439.115C590.906 440.206 590.774 441.259 590.933 442.219C591.01 442.683 591.152 443.128 591.37 443.549C590.026 443.896 589.129 443.565 588.509 442.898C587.527 441.841 587.182 440.254 587.168 438.432C587.118 431.906 591.421 422.392 593.178 418.472C593.359 418.068 593.514 417.722 593.637 417.442C599.991 402.903 610.157 388.74 624.288 380.903C637.98 373.31 654.186 371.875 668.351 379.053C684 386.984 688.27 402.687 690.043 418.826C690.315 421.299 689.196 423.579 687.476 425.299C685.534 427.241 682.806 428.498 680.256 428.498C677.609 428.498 675.184 427.377 673.412 425.604C671.624 423.817 670.495 421.364 670.475 418.706L670.458 417.158C670.376 411.769 669.998 406.709 668.042 402.419C666.47 398.969 663.895 395.999 659.648 393.743ZM638.814 321.367C646.366 325.957 657.872 336.66 649.748 348.04C640.186 358.073 626.419 346.569 619.634 341.366C613.343 337.334 606.275 347.705 612.112 352.413C661.136 388.708 681.031 322.567 642.634 315.97C638.406 315.243 636.836 319.947 638.814 321.367ZM575.25 322.874C573.216 323.87 570.96 324.274 568.748 323.812C566.767 323.399 564.831 322.289 563.117 320.333C560.763 317.644 559.054 313.826 560.196 310.183L560.523 309.246C560.909 308.156 561.43 307.134 562.064 306.208C562.471 304.223 562.553 302.924 562.63 301.689C562.65 301.374 562.669 301.063 562.691 300.753C562.813 299.024 563.066 297.215 563.647 295.551C563.756 295.237 563.877 294.927 564.009 294.62C563.684 294.507 563.359 294.393 563.035 294.278C560.792 293.488 558.556 292.684 556.332 291.844C550.007 289.453 543.753 286.757 537.699 283.741C534.708 282.251 531.793 280.574 528.914 278.877C527.539 277.963 524.524 275.834 523.171 274.688L522.145 273.818L521.608 275.052C521.031 275.633 520.565 275.679 520.173 275.548C519.752 275.408 519.44 275.076 519.244 274.677C519.008 274.197 518.935 273.613 519.059 273.049C519.171 272.542 519.448 272.051 519.917 271.665C521.7 270.194 524.216 270.833 526.306 271.243C526.605 271.301 526.897 271.358 527.181 271.41C530.431 272.004 533.674 272.711 536.904 273.442L540.792 274.327C542.275 274.666 543.759 275.006 545.241 275.346C562.088 279.206 578.906 283.058 596.122 284.75L597.936 284.92C601.005 285.194 603.736 286.497 605.535 288.573C607.192 290.484 608.039 293.048 607.636 296.021C607.243 298.931 605.606 301.354 603.353 302.854C601.112 304.347 598.26 304.927 595.414 304.163C590.07 302.729 584.738 301.221 579.431 299.622L580.673 302.571C581.74 305.14 582.725 307.802 582.841 310.52C582.95 313.073 582.201 315.545 580.904 317.659C579.524 319.91 577.523 321.761 575.25 322.874ZM695.352 261.429C694.034 263.228 692.519 264.765 691.01 266.305C687.75 269.63 684.491 272.956 681 276.049C679.735 277.171 678.455 278.277 677.176 279.383C676.701 279.793 676.226 280.203 675.752 280.615L675.005 281.262L675.644 282.017C675.815 282.219 675.977 282.428 676.112 282.65C678.03 285.789 679.095 289.197 680.173 292.614C680.912 294.956 681.654 297.303 682.651 299.583L682.972 300.297C684.269 303.087 684.618 306 683.929 308.628C683.28 311.104 681.705 313.314 679.179 314.923C678.544 315.328 677.46 315.798 676.726 315.961C673.831 316.603 670.9 316.155 668.504 314.795C666.214 313.495 664.418 311.358 663.622 308.555C662.446 304.414 661.691 300.207 661.731 296.107C661.737 295.413 661.767 294.716 661.818 294.017C661.36 294.481 660.835 294.89 660.239 295.227C658.384 296.275 656.287 296.378 654.316 295.843C652.085 295.237 650.008 293.82 648.569 291.968C647.302 290.337 646.527 288.361 646.627 286.296C646.714 284.493 647.475 282.637 649.102 280.888L650.637 279.324C651.779 278.166 653.351 277.274 655.027 276.824C656.564 276.41 658.194 276.366 659.656 276.865C661.628 276.325 662.906 275.689 664.093 275.098C664.939 274.677 665.736 274.279 666.447 273.969C669.91 272.463 673.359 270.928 676.798 269.366C679.779 268.01 682.807 266.758 685.836 265.506C689.026 264.187 692.216 262.868 695.352 261.429Z" fill="black"/>
<path fill-rule="evenodd" clip-rule="evenodd" d="M705.809 245C729.281 245 742.676 250.048 747.584 250.441L747.732 250.451C749.773 250.582 751.605 250.753 753.526 251.496C760.592 254.217 761.743 261.627 757.619 266.298C757.33 275.961 758.601 287.253 756.42 296.947C753.73 337.818 734.509 344.716 723.584 347.233C718.098 348.497 711.597 349 705.771 347.666C695.831 347.295 686.004 344.184 677.597 338.765C665.888 331.213 657.191 319.606 654.368 305.83C653.031 299.264 652.406 292.429 653.134 285.754L653.242 284.835C649.436 283.014 645.025 282.67 640.479 282.509C638.307 282.432 636.166 282.363 634.087 282.455C632.054 282.682 630.045 282.984 628.031 283.396C625.831 284.059 623.753 285.155 621.835 286.89L621.703 289.423C621.343 295.749 620.512 302.094 619.231 308.3C617.339 317.458 614.297 326.204 607.822 332.699C605.63 335.973 602.918 338.895 599.626 341.425C587.665 350.634 571.415 354.015 556.502 352.742C526.225 350.158 508.724 326.123 504.691 315.85L504.45 315.228C501.537 307.59 499.215 297.681 490.009 296.04L488.051 295.688C483.85 294.899 479.973 293.802 477.51 289.703C476.43 287.913 475.875 285.912 475.739 283.872C474.301 283.982 472.866 284.088 471.436 284.19C460.028 286.603 391.6 288.648 386.138 288.648C386.138 288.648 375.639 293.067 371.207 289.643C368.134 287.263 367.123 284.09 368.815 280.495C371.367 275.086 383.14 271.833 388.368 270.803C388.368 270.803 472.733 271.503 478.805 270.352C482.562 266.478 489.282 267.008 494.898 266.396C499.546 263.081 506.049 260.861 511.186 259.375C512.233 258.978 513.27 258.595 514.278 258.233C523.695 254.88 533.484 253.103 543.422 252.149C553.67 251.175 563.948 251.616 574.136 253.012C578.429 253.594 582.682 254.347 586.906 255.332C594.468 256.329 601.986 257.971 609.551 259.919L611.065 260.313C619.031 262.401 627.217 264.208 635.464 262.792C642.177 261.647 648.634 259.063 654.824 256.269L655.629 255.904C669.24 249.689 690.496 245 705.809 245ZM586.087 267.722C581.065 266.618 578.92 274.361 583.958 275.468C587.526 276.253 590.549 278.052 592.592 281.099L592.807 281.431C595.548 285.793 602.48 281.766 599.72 277.376C596.614 272.436 591.788 268.976 586.087 267.722ZM733.173 262.922C731.403 261.675 728.724 262.6 727.696 264.363C726.565 266.303 727.306 268.464 728.964 269.733L729.133 269.857C730.654 270.929 732.135 272.851 732.321 274.819L732.338 275.066C732.537 280.218 740.544 280.244 740.344 275.066C740.149 270 737.215 265.767 733.173 262.922Z" fill="black"/>
<path fill-rule="evenodd" clip-rule="evenodd" d="M705.809 245C729.281 245 742.676 250.048 747.584 250.441L747.732 250.451C749.773 250.582 751.605 250.753 753.526 251.496C760.592 254.217 761.743 261.627 757.619 266.298C757.33 275.961 758.601 287.253 756.42 296.947C753.73 337.818 734.509 344.716 723.584 347.233C718.098 348.497 711.597 349 705.771 347.666C695.831 347.295 686.004 344.184 677.597 338.765C665.888 331.213 657.191 319.606 654.368 305.83C653.031 299.264 652.406 292.429 653.134 285.754L653.242 284.835C649.436 283.014 645.025 282.67 640.479 282.509C638.307 282.432 636.166 282.363 634.087 282.455C632.054 282.682 630.045 282.984 628.031 283.396C625.831 284.059 623.753 285.155 621.835 286.89L621.703 289.423C621.343 295.749 620.512 302.094 619.231 308.3C617.339 317.458 614.297 326.204 607.822 332.699C605.63 335.973 602.918 338.895 599.626 341.425C587.665 350.634 571.415 354.015 556.502 352.742C526.225 350.158 508.724 326.123 504.691 315.85L504.45 315.228C501.537 307.59 499.215 297.681 490.009 296.04L488.051 295.688C483.85 294.899 479.973 293.802 477.51 289.703C476.43 287.913 475.875 285.912 475.739 283.872C474.301 283.982 472.866 284.088 471.436 284.19C460.028 286.603 391.6 288.648 386.138 288.648C386.138 288.648 375.639 293.067 371.207 289.643C368.134 287.263 367.123 284.09 368.815 280.495C371.367 275.086 383.14 271.833 388.368 270.803C388.368 270.803 472.733 271.503 478.805 270.352C482.562 266.478 489.282 267.008 494.898 266.396C499.546 263.081 506.049 260.861 511.186 259.375C512.233 258.978 513.27 258.595 514.278 258.233C523.695 254.88 533.484 253.103 543.422 252.149C553.67 251.175 563.948 251.616 574.136 253.012C578.429 253.594 582.682 254.347 586.906 255.332C594.468 256.329 601.986 257.971 609.551 259.919L611.065 260.313C619.031 262.401 627.217 264.208 635.464 262.792C642.177 261.647 648.634 259.063 654.824 256.269L655.629 255.904C669.24 249.689 690.496 245 705.809 245ZM586.087 267.722C581.065 266.618 578.92 274.361 583.958 275.468C587.526 276.253 590.549 278.052 592.592 281.099L592.807 281.431C595.548 285.793 602.48 281.766 599.72 277.376C596.614 272.436 591.788 268.976 586.087 267.722ZM733.173 262.922C731.403 261.675 728.724 262.6 727.696 264.363C726.565 266.303 727.306 268.464 728.964 269.733L729.133 269.857C730.654 270.929 732.135 272.851 732.321 274.819L732.338 275.066C732.537 280.218 740.544 280.244 740.344 275.066C740.149 270 737.215 265.767 733.173 262.922Z" fill="black"/>
</svg>
