<svg width="614" height="167" viewBox="0 0 614 167" fill="none" xmlns="http://www.w3.org/2000/svg">
<path d="M140.5 40C139.1 42.2 139.1 52.8 140.5 60.5C141.3 64.9 142.4 75 143 83C143.6 91 144.6 99.3 145.2 101.5C146.4 106.4 146.4 122.8 145.1 126.1C142.2 134 152.4 139.6 173.6 141.7C178.4 142.1 178.9 141.9 185 137.3C196 128.9 199.9 117.8 196.2 105.3C194.5 99.5 186.3 90.8 180.4 88.5C174 86.1 166.2 87 160.3 91C157.9 92.7 155.5 94 155.1 94C153.7 94 152.9 89.3 152.4 80C152.2 75.3 151.8 69.7 151.4 67.6C150.6 62.4 150.1 58 149.4 49C148.7 41 147.5 39 143.4 39C142.1 39 140.8 39.5 140.5 40ZM182.5 101C187.3 105.7 189.7 117 186.9 122.3C183.1 129.3 173.3 133.9 165.1 132.4C158.3 131.2 158 130.7 158 122.2C158 105.4 164.2 96.3 174.8 97.4C178 97.7 180.1 98.6 182.5 101Z" fill="black"/>
<path d="M480.2 41.4999C477.4 44.6999 477.4 46.5999 480.4 48.4999C482.2 49.6999 483.4 49.7999 485.4 49.0999C487.6 48.1999 488 47.3999 488 44.0999C488 41.4999 487.5 39.9999 486.4 39.5999C483.7 38.5999 482.4 38.8999 480.2 41.4999Z" fill="black"/>
<path d="M575.3 40.7999C574.7 41.1999 573.2 43.5999 572.1 45.9999C569.7 51.2999 567.6 54.8999 563.5 60.9999C561.8 63.4999 559.4 67.5999 558.2 70.1999C555.2 76.2999 553.3 76.9999 550.1 72.7999C548.8 70.9999 544.9 66.7999 541.6 63.4999C538.2 60.1999 534.8 56.3999 534 55.1999C532.5 52.9999 532.4 52.8999 529.2 54.4999C527.5 55.3999 525.5 56.9999 525 57.9999C524.4 59.0999 524.3 68.1999 524.7 82.0999C525.3 102.1 525.5 104.5 527.2 106.2C529.4 108.4 531.9 108.3 533 106C536.1 99.7999 536.4 98.1999 536.3 87.4999C536.2 75.2999 537.1 73.3999 540.4 78.4999C541.3 79.7999 544 82.9999 546.4 85.3999C550.2 89.3999 551.2 89.8999 553.8 89.3999C555.8 88.9999 557.8 87.3999 559.9 84.3999C561.6 81.8999 563 79.4999 563 78.9999C563 78.3999 563.4 77.9999 563.8 77.9999C564.2 77.9999 565.5 76.0999 566.7 73.6999C569.7 67.6999 574.9 60.7999 576 61.4999C576.5 61.7999 577.2 63.6999 577.5 65.7999C577.8 67.7999 579 72.3999 580 75.9999C586.9 99.5999 587.1 100.1 589.5 101.2C592.1 102.4 595 101 595 98.5999C595 97.9999 595.7 96.1999 596.5 94.6999C597.9 91.9999 597.8 91.5999 595.4 88.3999C593.9 86.4999 592.1 82.3999 591.4 79.1999C590.7 76.0999 588.7 68.2999 587 61.9999C585.3 55.6999 583.7 48.0999 583.4 45.1999C582.7 40.1999 582.6 39.9999 579.6 39.9999C577.9 39.9999 576 40.3999 575.3 40.7999Z" fill="black"/>
<path d="M50.0002 57C38.3002 59.4 25.0002 71.1 25.0002 78.9C25.0002 83.4 26.0002 85 28.7002 85C35.2002 85 52.8002 90.1 59.0002 93.9C66.2002 98.2 71.0002 105.3 71.0002 111.5C71.0002 116.8 65.6002 124.5 60.0002 127.2C54.4002 129.9 49.6002 129.8 39.8002 126.7C31.4002 124 26.7002 124.2 23.3002 127.2C20.4002 129.9 21.4002 132.3 25.1002 131.5C27.9002 130.9 38.8002 133.6 45.9002 136.7C53.0002 139.9 70.8002 135.4 72.5002 130C72.8002 128.9 74.2002 126.7 75.5002 125.2C80.3002 119.5 81.4002 107.8 77.9002 100.8C75.6002 96.3 73.3002 93.8 65.4002 87.2C61.1002 83.7 58.5002 82.6 50.4002 80.4C44.9002 79 39.9002 77.3 39.1002 76.5C37.9002 75.3 38.0002 74.8 40.1002 73C41.4002 71.9 44.1002 70.1 46.1002 69C49.4002 67.3 49.9002 67.2 51.9002 68.6C55.1002 70.9 58.6002 69.7 59.9002 65.9C61.4002 61.4 61.3002 59.6 59.2002 57.7C57.2002 55.9 55.7002 55.8 50.0002 57Z" fill="black"/>
<path d="M448.8 56.5999C447.1 57.0999 446.2 59.0999 443.5 68.4999C442.5 71.7999 440.7 76.8999 439.4 79.6999C437.3 84.5999 436.9 84.9999 433.8 84.8999C432 84.8999 429.3 84.0999 427.8 83.1999C418 76.9999 413 73.0999 409.5 68.8999C405.4 63.8999 403.9 63.2999 399.6 64.9999C397.6 65.6999 397 66.5999 397 68.9999C397 72.2999 398.5 82.7999 400.5 93.9999C401.3 98.0999 402.2 104 402.6 107.1C403.1 112.2 403.5 112.7 406.3 113.8C409 114.8 409.7 114.8 410.8 113.3C411.4 112.4 412 110.8 412 109.9C412 108.9 412.5 107.8 413 107.5C414.6 106.5 414.2 100.2 412 91.9999C410.9 87.8999 410 84.3999 410 84.1999C410 83.3999 413 84.1999 413.7 85.1999C414.1 85.8999 415.4 86.9999 416.5 87.6999C427.1 94.0999 429.2 94.9999 433.4 94.9999C440.4 94.9999 442.5 93.6999 445.1 87.9999C446.3 85.1999 447.8 83.0999 448.4 83.2999C448.9 83.4999 450.6 88.4999 452.1 94.5999C457.8 117.6 461.4 122.4 466.3 114.1C468.3 110.6 468.5 107.1 466.6 105.6C464.8 104.1 461.5 92.6999 459.5 81.4999C458.6 76.4999 457.4 70.9999 456.8 69.1999C456.3 67.2999 455.7 63.6999 455.6 61.1999C455.5 56.8999 455.3 56.4999 453 56.2999C451.6 56.2999 449.8 56.3999 448.8 56.5999Z" fill="black"/>
<path d="M484.7 72.1C484.4 73.3 485.3 77.4 486.8 81.4C488.4 85.9 489.4 90.8 489.5 95C489.8 103.7 490.5 105.7 493.8 106.3C495.3 106.6 496.8 106.6 497.3 106.3C498.9 105.3 501.1 99.8 501.1 96.7C501.1 91 497.5 78.2 494.2 72.2C492.4 69.1 485.5 69 484.7 72.1Z" fill="black"/>
<path d="M238.2 72C235 73.3 228 78.2 224.8 81.5L222.1 84.2L219.6 80.1C217.8 77.3 216.5 76.2 215.4 76.7C214.5 77 212.9 77.3 211.7 77.4C209 77.6 209.1 78.4 212.9 89C215.9 97.3 217.6 104.4 220.4 120.5C221.2 124.9 222.4 130.4 223.2 132.7C224.4 136.7 224.7 137 228.2 137C231.4 137 232 136.6 232.9 133.7C234 130.1 233.7 124.9 232.1 119.8C228.4 107.9 228.1 100.9 230.6 92.5C231.9 88.3 232.9 86.9 236.4 84.7C241.5 81.5 243.9 81.3 247.3 84C252.4 88 256 86 256 79.3C256 75.5 255.6 74.7 252.8 73C249.3 70.9 242.3 70.4 238.2 72Z" fill="black"/>
<path d="M274.3 76.0999C272 77.1999 269.3 79.2999 268.4 80.8999C267.1 83.0999 266 83.6999 263.6 83.5999C260.7 83.4999 260.5 83.6999 260.2 87.4999C260 90.2999 260.7 92.8999 262.3 96.0999C263.7 98.5999 265.1 102.2 265.4 104.1C266.5 109.5 270.2 116 273.5 118.5C282.2 125.1 293.9 127.3 300.7 123.7C305.4 121.2 315 107.5 315 103.3C315 102.5 313.8 102 311.5 102C309.6 102 308 102.5 308 103.1C308 103.7 305.6 106.6 302.6 109.6C297.7 114.5 296.8 115 292.8 115C286.7 115 281.2 111.9 278.3 106.9C277.1 104.7 276 102.4 276 101.8C276 101.3 278.1 99.8999 280.7 98.7999C287.4 95.7999 291.7 91.3999 293.2 85.7999C295.3 77.6999 291.9 73.8999 282.7 74.0999C280.4 74.0999 276.6 74.9999 274.3 76.0999ZM283.7 84.5999C283.7 86.7999 278.1 90.4999 276.8 89.1999C275.1 87.4999 278.5 82.9999 281.4 82.9999C282.8 82.9999 283.7 83.5999 283.7 84.5999Z" fill="black"/>
<path d="M96.3001 77.2C91.3001 78.3 87.9001 82.1 84.9001 90C83.2001 94.6 83.1001 96.2 84.0001 105.6C85.1001 117.7 86.3001 120.5 93.2001 127C98.7001 132.2 101 133 110 133C114.9 133 116.3 132.5 119.5 130C121.6 128.3 123.6 127 123.9 127C124.2 127 125.9 124.2 127.5 120.7C131 113.4 131.4 105.5 128.7 97.4C127 92.4 119 81.9 116 80.6C115.2 80.2 112.9 79 111 78C107.3 75.9 103.1 75.6 96.3001 77.2ZM109.8 85.5C115.3 89.4 121 101.8 121 109.9C121 117 116.3 122.6 109.5 123.7C106.4 124.2 105.6 123.8 101.5 119.6C94.9001 112.8 93.7001 109.8 94.3001 102.3C94.5001 98.8 94.4001 95.7 93.9001 95.4C92.3001 94.5 92.9001 91.6 95.5001 87.7C97.9001 84.3 98.5001 84 102.8 84C105.5 84 108.5 84.7 109.8 85.5Z" fill="black"/>
</svg>
