<svg width="414" height="179" viewBox="0 0 414 179" fill="none" xmlns="http://www.w3.org/2000/svg">
<path d="M28.8996 34.7C27.6996 36.1 27.4996 38.9 27.5996 46.5C27.7996 52 28.0996 58.3 28.3996 60.5C28.6996 62.7 29.1996 67.8 29.4996 71.9C29.7996 76 30.1996 79.6 30.3996 79.9C30.6996 80.3 30.8996 85.5 31.0996 91.5C31.1996 97.6 31.6996 103.6 32.1996 104.9C33.4996 108.4 31.7996 109.6 24.1996 111C6.7996 114.1 0.0995965 118.4 6.2996 122.5C8.3996 123.8 9.7996 123.7 20.9996 121.5C33.6996 119 35.7996 119.2 35.8996 122.8C35.9996 128.1 37.3996 136.7 38.1996 137.7C38.7996 138.4 38.9996 139.7 38.5996 140.5C38.2996 141.4 38.7996 143.8 39.5996 146C40.9996 149.6 41.5996 150 44.5996 150C47.6996 150 47.9996 149.7 47.9996 147.1C47.9996 145.4 48.5996 144 49.5996 143.6C50.6996 143.2 50.9996 142.4 50.4996 141.2C49.6996 139.6 46.4996 126.6 45.2996 120.6L44.6996 117.7L51.0996 118.3C56.2996 118.7 57.7996 118.5 59.6996 117C61.0996 115.9 61.6996 114.9 60.9996 114.5C60.3996 114.2 60.1996 113.5 60.4996 113C61.3996 111.6 57.2996 108 54.7996 107.9C53.4996 107.9 50.5996 107.9 48.2996 108C42.1996 108.2 41.6996 106.8 40.5996 88.5C40.1996 82.4 39.4996 73 38.9996 67.5C38.4996 62 37.7996 53.1 37.4996 47.6C36.9996 37.2 35.4996 33 32.0996 33C31.0996 33 29.6996 33.8 28.8996 34.7Z" fill="black"/>
<path d="M225.9 52C224.5 52.8 224.3 55.2 224.5 69.8C224.7 79.1 225.2 87.6 225.7 88.6C226.3 89.6 226.8 93 226.9 96C227 99 227.5 103.1 228 105C228.5 106.9 229.4 113.4 229.9 119.5C231.6 137.6 233.1 144 236.2 146.3C238.4 148 239.2 148.1 240.5 147C241.3 146.3 242 144.5 242 143C242 141.5 242.7 139.7 243.5 139C245.4 137.4 245.5 132.1 243.6 131.4C242.1 130.8 240.3 124.1 239.4 116C239.2 113.5 238.4 107.9 237.8 103.5C236.7 95.4 236.2 89.5 235.6 80.5C235.4 77.7 235.1 75.3 235 75C234.5 74.1 234.3 71.5 234.1 63.2C234 56.5 233.6 54.6 232 53C229.8 50.8 228.3 50.6 225.9 52Z" fill="black"/>
<path d="M80 80C78.9 81.1 78 82.4 78 82.9C78 84.9 82.3 89 84.5 89C86.3 89 87 88.2 87.8 85C88.6 81.8 88.5 80.6 87.3 79.5C85.3 77.4 82.4 77.6 80 80Z" fill="black"/>
<path d="M263.3 82C262 82.5 261 83.6 261 84.5C261 85.3 260.6 86 260 86C258.1 86 259 88.7 262.1 91.8C263.8 93.6 265.6 95 266 95C267.2 95 270 92.1 270.1 90.7C270.2 90 270.4 88.3 270.6 86.8C270.9 84 268.8 80.9 266.7 81.1C266 81.1 264.5 81.5 263.3 82Z" fill="black"/>
<path d="M363.6 87C362 87.5 358 90.5 354.8 93.7C348.7 99.7 347.6 102.8 350.4 105.9C351.2 106.8 352.4 111.5 353.1 116.5C354.3 125.2 356.6 130.8 360.1 133.6C361.8 135 373.6 138 377.4 138C381.6 138 387 135 389.1 131.6C391.5 127.7 391.6 122.4 389.4 121.6C387.7 120.9 381 124.5 381 126.1C381 127.3 373.8 127.3 370.5 126C367.4 124.8 364.1 121.2 364 118.9C364 118.1 365.7 116.1 367.9 114.5C372.7 110.9 378.7 102.2 379.5 97.6C380.5 92.5 379.3 88.5 376.4 87.1C373.5 85.8 367.8 85.8 363.6 87ZM369 97.5C369 98.3 368.4 99 367.6 99C365.6 99 364.7 97.3 366.2 96.7C368.4 95.8 369 96 369 97.5Z" fill="black"/>
<path d="M151.9 92C150.9 92.5 149 96.4 147.5 100.5C145.9 104.7 144.3 108.3 143.9 108.6C143.4 108.9 143 110 143 111C143 112.1 141.8 113.7 140.4 114.7C137.8 116.3 137.8 116.3 133.5 111.7C131.2 109.1 128 104.1 126.5 100.6C123.4 93.3 120.7 91.2 116.3 92.7L113.5 93.7L113.4 118.1C113.3 146 113.7 148.2 119.4 147C121.6 146.6 122.5 145.8 122.3 144.5C122.2 143.4 122.9 142 123.9 141.4C125.7 140.1 125.9 135.7 124.6 128.7C124.3 127.1 124.5 124.7 125.1 123.4L126 120.9L129.2 123.2C135.6 127.8 136.8 128.1 141.3 126.5C143.6 125.7 145.6 124.6 145.9 123.9C146.1 123.3 147.3 121.9 148.6 120.8C149.9 119.6 151.2 117.5 151.5 115.9C152.1 113.1 154.7 111.3 156.1 112.7C156.6 113.2 157.4 118 158 123.5C159.1 133.5 159.6 135.3 164 144.4C167.4 151.3 172.4 152.6 175.1 147.2C175.9 145.7 177.5 143 178.8 141.3C182 137 181.1 135 176.1 135C172.5 135 172.1 134.7 170.6 131.1C169.8 128.9 169.1 125.2 169.2 122.7C169.2 120.3 168.7 117.4 168.1 116.2C167.4 115 167 113.4 167.2 112.7C167.6 110.6 161.8 94.8 159.9 92.9C157.8 90.8 154.5 90.5 151.9 92Z" fill="black"/>
<path d="M322 95.7C320.6 96.6 318.2 99 316.6 101.1C315.1 103.3 313.4 105 312.7 105C312.1 105 309.8 102.9 307.5 100.3C304.2 96.6 302.8 95.7 300.3 95.8C296.4 95.9 292.4 98.4 291.6 101.2C290.9 104.1 292.5 105.8 296.6 106.6C299.1 107.1 300.2 107.9 300.6 109.6C300.9 110.9 301.6 112 302 112C303 112 304.1 117 304.6 124.4C305.2 132.3 306.3 134 310.5 134C313.5 134 314 133.7 314 131.6C314 130.3 314.7 129 315.5 128.6C316.3 128.3 317 126.9 317 125.5C317 124.1 317.4 123 317.8 123C318.2 123 319.2 120.4 319.8 117.2C321.2 110.9 324 106.7 326.7 107.2C329 107.6 332.1 116.3 331.9 122C331.9 124.5 331.9 126.9 332 127.5C332.1 128 332.2 128.9 332.1 129.3C332 129.8 332.4 131.8 333 133.9C335.1 141.8 343.9 141.5 345.4 133.5C345.9 130.9 345.7 129.3 344.7 128.1C343.8 127.2 342.9 123.1 342.5 118.1C341.7 109 338.9 102.2 334.2 97.7C330.8 94.6 325.3 93.7 322 95.7Z" fill="black"/>
<path d="M81.4994 97C81.0994 97.6 81.0994 99.7 81.3994 101.8C81.6994 103.8 82.0994 111.8 82.0994 119.5C82.1994 127.2 82.6994 134.7 83.1994 136.3C84.7994 140.6 90.9994 141.3 90.9994 137.1C90.9994 136.1 91.8994 134.5 92.9994 133.5C94.0994 132.5 94.6994 131.3 94.2994 130.7C93.9994 130.1 93.0994 122.7 92.3994 114.2C91.2994 101.5 90.7994 98.6 89.2994 97.4C87.1994 95.8 82.3994 95.6 81.4994 97Z" fill="black"/>
<path d="M266 102.5C264.5 104.3 264.5 125.7 266 127.5C266.5 128.1 266.9 130 266.9 131.6C266.8 139.8 270 144 275.4 142.6C279.2 141.7 280.2 135.2 277.7 128.5C276.4 125.2 275.7 120.2 275.5 113.7C275.3 108.1 274.6 103.3 273.9 102.4C272.4 100.6 267.6 100.6 266 102.5Z" fill="black"/>
<path d="M190 102.7C186.5 103.2 181.2 106.3 179.5 108.9C178.3 110.9 178 118.9 179.1 119.6C180.5 120.4 180.1 123.2 178.4 125.1C176.9 126.8 177 127.1 179.5 129.4C181.1 130.9 182 132.6 181.7 133.4C181.2 134.7 183.5 138.3 187.7 142.8C190.4 145.6 199 149 204.2 149.3C208.7 149.5 210.1 149.1 212.7 147C216.2 144.2 219 140 219 137.6C219 135.6 214.2 133.1 213.2 134.6C211.8 136.7 207.5 139 205 139C201.2 139 194.6 135.1 192.7 131.7C190.7 128.3 191.2 127.3 196.6 124C198.4 122.8 201.3 119.5 203 116.5C206.3 110.7 206.1 108.1 202 104C200 102 197.9 101.8 190 102.7Z" fill="black"/>
</svg>
