<svg width="251" height="157" viewBox="0 0 251 157" fill="none" xmlns="http://www.w3.org/2000/svg">
<path d="M79.9997 35.9C72.5997 37.5 59.0997 41.3 49.9997 44.4C40.8997 47.5 28.9997 51.4 23.4997 53.1C9.09974 57.4 5.39974 59.1 3.59974 62.1C2.19974 64.5 2.19974 64.8 4.29974 66.8C6.39974 68.8 10.5997 68.9 11.9997 67C12.8997 65.9 27.2997 61.1 40.2997 57.8C49.1997 55.5 51.2997 56.2 50.8997 61.4C50.6997 64.8 51.6997 71.2 53.0997 75C53.4997 76.4 54.1997 80.2 54.5997 83.5C54.8997 86.8 55.3997 89.8 55.5997 90.1C55.7997 90.5 56.1997 97.6 56.4997 106C56.7997 114.4 57.4997 122 57.8997 122.9C58.3997 123.8 59.0997 126.4 59.4997 128.7C60.0997 132.5 60.3997 132.8 62.7997 132.7C64.6997 132.5 65.8997 131.6 66.8997 129.5C67.6997 127.8 68.9997 126 69.7997 125.4C71.3997 124.3 71.1997 122.4 68.9997 111.5C68.3997 108.7 67.2997 100.8 66.4997 93.8C65.6997 86.8 64.5997 80.1 63.9997 78.9C63.2997 77.8 63.0997 76.6 63.3997 76.3C63.5997 76 63.3997 74.6 62.7997 73.1C60.4997 67.2 60.0997 54.2 62.2997 52.8C62.8997 52.4 65.1997 52 67.1997 52C69.1997 52 73.4997 51.3 76.6997 50.4C79.8997 49.5 85.6997 48.2 89.6997 47.5C97.9997 46 98.9997 45.5 98.9997 43.1C98.9997 42.1 99.8997 40.5 101 39.5C103.5 37.2 103.5 35.4 101.1 34C98.1997 32.5 94.9997 32.8 79.9997 35.9ZM59.6997 67.2C59.3997 68 59.0997 67.7 59.0997 66.6C58.9997 65.5 59.2997 64.9 59.5997 65.3C59.8997 65.6 59.9997 66.5 59.6997 67.2Z" fill="black"/>
<path d="M199.8 34C198.9 34.6 197.1 36.7 195.9 38.8C194.7 40.8 191.8 44.8 189.4 47.5C187.1 50.3 183.6 55.7 181.5 59.5C179.5 63.4 177.4 66.9 176.9 67.4C176.4 68 176 69.1 176 69.9C176 70.8 175.4 72.7 174.6 74.1C173.9 75.5 173 77.8 172.6 79.3C172.3 80.8 171.6 82 171.2 82C170.7 82 167.9 79.3 164.9 75.9C161.9 72.6 155.2 65.2 150 59.5C144.8 53.9 139.3 47.8 137.9 46.1C134.3 42 129.9 41.8 128.4 45.7C127.3 48.7 128.2 72.2 130 89.5C130.5 95 131.3 105.6 131.6 113C132 120.4 132.7 127.3 133.2 128.2C134.5 130.9 139.7 130.6 140.6 127.7C140.9 126.5 141.8 124.8 142.5 124C143.5 122.8 143.6 120.6 142.9 114C142.4 109.3 141.8 101.2 141.5 96C141.2 90.8 140.5 82 140 76.6C139.4 71.1 139.2 66.5 139.4 66.3C140.7 65 145.6 67.9 148.8 71.8C150.8 74.4 153.2 77.2 154 78.1C154.8 79 157.5 82.1 160 84.9C168.9 95.3 174.7 101 176.4 101C177.4 101 178.5 99.7 179.2 98C179.7 96.3 181.1 94.5 182.1 93.9C183.1 93.4 184 92.3 184 91.4C184 86.5 194.4 62.7 197.3 60.8C199.4 59.5 199.6 59.9 201.3 67.7C203.6 78.8 204 81.8 204.6 92.2C205.4 107.8 206.8 120.2 208 121.4C208.5 121.9 209 123.4 209 124.6C209 128.3 214.4 129.3 215.6 125.8C215.9 124.6 217.1 122.9 218.2 122C220 120.6 220 120 219 114C218.4 110.4 217.7 105.1 217.4 102.2C217.1 99.2 216.5 95.7 215.9 94.4C215.4 93 215 90.2 215 88.2C214.9 86.2 213.8 79.8 212.4 74C211.1 68.2 209.8 62.6 209.6 61.5C209.4 60.4 209.2 59.5 209.1 59.5C208.9 59.5 208.7 57.5 208.6 55.1C208.4 52.8 207.7 50.4 207 50C206 49.4 206 48.5 206.9 46C210 37 206.1 30.4 199.8 34Z" fill="black"/>
</svg>
