<svg width="521" height="513" viewBox="0 0 521 513" fill="none" xmlns="http://www.w3.org/2000/svg">
<g filter="url(#filter0_d)">
<g clip-path="url(#clip0)">
<path d="M5.811 315.875C6.349 314.574 7.13899 313.392 8.13599 312.398L136.136 184.398C140.373 180.305 147.126 180.423 151.219 184.66C155.212 188.794 155.212 195.347 151.219 199.481L41.416 309.284L250.333 309.284C385.764 309.13 495.514 199.38 495.667 63.95C495.667 58.059 500.443 53.283 506.334 53.283C512.225 53.283 517 58.059 517 63.95C516.835 211.158 397.541 330.452 250.333 330.617L41.416 330.617L151.197 440.398C155.434 444.491 155.551 451.244 151.458 455.481C147.365 459.718 140.612 459.835 136.375 455.742C136.286 455.656 136.199 455.569 136.114 455.481L8.11401 327.481C5.05801 324.433 4.14 319.843 5.789 315.854L5.811 315.875Z" fill="#2196F3"/>
<path d="M143.667 458.617C149.558 458.628 154.342 453.86 154.353 447.969C154.358 445.129 153.23 442.404 151.219 440.398L30.749 319.95L151.219 199.502C155.312 195.265 155.194 188.512 150.957 184.419C146.823 180.426 140.27 180.426 136.136 184.419L8.136 312.419C3.972 316.584 3.972 323.336 8.136 327.502L136.136 455.502C138.135 457.496 140.843 458.616 143.667 458.617Z" fill="black"/>
<path d="M15.667 330.617L250.333 330.617C397.541 330.452 516.835 211.158 517 63.95C517 58.059 512.224 53.283 506.333 53.283C500.442 53.283 495.666 58.059 495.666 63.95C495.513 199.38 385.763 309.131 250.333 309.283H15.666C9.77499 309.283 4.99902 314.059 4.99902 319.95C5.00003 325.841 9.776 330.617 15.667 330.617Z" fill="black"/>
<path d="M15.667 330.617L250.333 330.617C397.541 330.452 516.835 211.158 517 63.95C517 58.059 512.224 53.283 506.333 53.283C500.442 53.283 495.666 58.059 495.666 63.95C495.513 199.38 385.763 309.131 250.333 309.283H15.666C9.77499 309.283 4.99902 314.059 4.99902 319.95C5.00003 325.841 9.776 330.617 15.667 330.617Z" stroke="black"/>
</g>
</g>
<defs>
<filter id="filter0_d" x="0.97998" y="0" width="520.02" height="520.02" filterUnits="userSpaceOnUse" color-interpolation-filters="sRGB">
<feFlood flood-opacity="0" result="BackgroundImageFix"/>
<feColorMatrix in="SourceAlpha" type="matrix" values="0 0 0 0 0 0 0 0 0 0 0 0 0 0 0 0 0 0 127 0"/>
<feOffset dy="4"/>
<feGaussianBlur stdDeviation="2"/>
<feColorMatrix type="matrix" values="0 0 0 0 0 0 0 0 0 0 0 0 0 0 0 0 0 0 0.25 0"/>
<feBlend mode="normal" in2="BackgroundImageFix" result="effect1_dropShadow"/>
<feBlend mode="normal" in="SourceGraphic" in2="effect1_dropShadow" result="shape"/>
</filter>
<clipPath id="clip0">
<rect width="512.02" height="512.02" rx="90" transform="matrix(-1 0 0 1 517 0)" fill="white"/>
</clipPath>
</defs>
</svg>
